<svg width="123" height="55" viewBox="0 0 123 55" fill="none" xmlns="http://www.w3.org/2000/svg">
    <ellipse cx="27.7604" cy="27.2348" rx="16.6344" ry="16.1723" fill="white"/>
    <path fill-rule="evenodd" clip-rule="evenodd" d="M46.6793 27.4129C46.6793 17.429 38.5745 9.32422 28.5906 9.32422C18.6068 9.32422 10.502 17.429 10.502 27.4129V27.4582C10.502 37.442 18.6068 45.5468 28.5906 45.5468C38.5745 45.5468 46.6793 37.442 46.6793 27.4582V27.4129ZM35.8578 28.4618C35.8578 32.7784 32.6883 35.5403 28.6133 35.5403C26.6663 35.5403 25.0966 34.9366 24.0402 33.7443V35.329H20.5537V16.3725H24.2364V23.0435C25.323 21.9116 26.8021 21.3833 28.6133 21.3833C32.6883 21.3833 35.8578 24.1302 35.8578 28.4618ZM32.4468 28.4618C32.4468 26.0772 30.847 24.6434 28.734 24.6434C26.621 24.6434 25.0363 26.0772 25.0363 28.4618C25.0363 30.8314 26.6361 32.2652 28.734 32.2652C30.847 32.2652 32.4468 30.8314 32.4468 28.4618Z" fill="#9B2AD6"/>
    <path d="M36.415 33.3399C36.415 32.1325 37.3508 31.3477 38.528 31.3477C39.7354 31.3477 40.6712 32.1325 40.6712 33.3399C40.6712 34.5473 39.7204 35.3774 38.5431 35.3774C37.3508 35.3774 36.415 34.5171 36.415 33.3399Z" fill="#FF8500"/>
    <path d="M63.9448 18.713C65.5869 18.6239 67.2184 19.0344 68.6236 19.8902C69.7103 20.5845 70.3577 21.7994 70.3291 23.0899C70.3276 24.9312 69.0447 26.5401 67.2501 26.9536C69.4265 27.2721 71.0399 29.1919 70.9781 31.3909C70.9781 32.9001 70.3743 34.0925 69.1669 34.9678C67.9595 35.8281 66.2993 36.2658 64.2316 36.2658H55.7344V18.713H63.9448ZM63.7486 25.7764C64.5033 25.7764 65.107 25.6254 65.5296 25.2783C65.9824 24.9312 66.1937 24.4482 66.1937 23.8294C66.1937 23.2257 65.9824 22.7578 65.5296 22.4258C65.0104 22.062 64.381 21.8915 63.7486 21.9428H59.7641V25.7764H63.7486ZM63.7486 33.0209C64.6995 33.0209 65.4541 32.8398 65.9974 32.4775C66.5408 32.1002 66.8125 31.572 66.8125 30.8928C66.8125 30.2589 66.5408 29.7608 65.9974 29.3835C65.3137 28.9836 64.5229 28.804 63.7335 28.8704H59.7641V33.036H63.7486V33.0209ZM87.5348 18.713H91.3684V36.2658H87.6857L79.0376 24.9764V36.2658H75.1889V18.713H78.8565L87.5348 30.0325V18.713ZM108.348 23.603C106.651 22.5888 104.747 21.97 102.778 21.7919C102.084 21.7919 101.526 21.9126 101.118 22.1692C100.727 22.3941 100.493 22.8197 100.515 23.271C100.515 23.8898 100.801 24.3727 101.375 24.7048C101.979 25.0066 102.884 25.3538 104.107 25.7009C105.329 26.0631 106.34 26.4103 107.125 26.7574C107.925 27.1045 108.604 27.6328 109.163 28.3421C109.721 29.0364 110.008 29.9721 110.008 31.1192C110.008 32.2512 109.706 33.2171 109.087 34.0321C108.484 34.832 107.669 35.4508 106.612 35.8583C105.556 36.2809 104.348 36.4922 103.005 36.4922C100.136 36.4862 97.3526 35.4946 95.1265 33.685L96.7263 30.44C97.6319 31.255 98.6733 31.8889 99.8505 32.3719C101.013 32.87 102.084 33.1114 103.065 33.1114C103.895 33.1114 104.544 32.9605 104.997 32.6587C105.48 32.3568 105.722 31.904 105.722 31.3456C105.722 30.8928 105.556 30.5306 105.239 30.2438C104.937 29.942 104.529 29.7005 104.031 29.5194C103.548 29.3383 102.899 29.127 102.039 28.8855C100.816 28.5534 99.8052 28.2214 99.0204 27.8893C98.2492 27.5467 97.5715 27.023 97.0432 26.365C96.4456 25.5786 96.1467 24.6052 96.198 23.6181C96.198 22.5616 96.4848 21.656 97.0583 20.8712C97.6469 20.0562 98.4469 19.4525 99.4883 19.0299C100.64 18.5756 101.871 18.3553 103.111 18.3809C105.51 18.3734 107.865 19.042 109.902 20.3128L108.348 23.603Z" fill="white"/>
</svg>
