<svg width="146" height="39" viewBox="0 0 146 39" fill="none" xmlns="http://www.w3.org/2000/svg">
    <g clip-path="url(#clip0_24603_55927)">
        <path d="M143.47 11.5939C143.628 11.5939 143.786 11.5939 143.944 11.7521C144.102 11.9102 144.102 12.0684 144.102 12.2265V15.7059C144.102 15.864 144.102 16.0222 143.944 16.1803C143.786 16.3385 143.628 16.3385 143.47 16.3385H140.465V30.2559C140.465 30.414 140.465 30.5722 140.307 30.7303C140.148 30.8885 139.99 30.8885 139.832 30.8885H135.246C135.088 30.8885 134.929 30.8885 134.771 30.7303C134.613 30.5722 134.613 30.414 134.613 30.2559V16.1803H131.608C131.45 16.1803 131.292 16.1803 131.134 16.0222C130.976 15.864 130.976 15.7059 130.976 15.5477V12.0684C130.976 11.9102 130.976 11.7521 131.134 11.5939C131.292 11.5939 131.45 11.5939 131.608 11.5939H134.613V6.6912C134.613 6.53305 134.613 6.3749 134.771 6.21675C134.929 6.05859 135.088 6.05859 135.246 6.05859H139.832C139.99 6.05859 140.148 6.05859 140.307 6.21675C140.465 6.3749 140.465 6.53305 140.465 6.6912V11.5939H143.47Z" fill="#1EA2B4"/>
        <path d="M130.343 20.9247C130.343 21.7155 130.185 22.3481 130.026 22.8226C129.868 23.1389 129.552 23.297 128.919 23.297H117.532C117.849 24.4041 118.323 25.1948 119.114 25.6693C119.905 26.1437 121.012 26.4601 122.277 26.4601C122.91 26.4601 123.542 26.4601 124.017 26.3019C124.649 26.1437 125.282 25.8274 125.914 25.353C126.073 25.1948 126.231 25.1948 126.389 25.1948C126.547 25.1948 126.705 25.1948 126.863 25.353L128.919 27.2508C129.078 27.409 129.078 27.409 129.078 27.5671C129.078 27.7253 129.078 27.8834 128.919 28.0416C127.97 28.9905 127.022 29.6231 125.756 30.2557C124.649 30.7302 123.384 31.0465 121.961 31.0465C120.063 31.0465 118.323 30.572 116.742 29.7812C115.318 28.8323 114.053 27.7253 113.262 26.1438C112.472 24.7204 111.997 22.9807 111.997 21.241C111.997 19.5014 112.472 17.7617 113.262 16.3383C114.053 14.9149 115.318 13.6497 116.742 12.859C118.165 11.9101 119.747 11.5938 121.644 11.5938C123.384 11.5938 124.966 12.0682 126.231 12.859C127.654 13.6497 128.603 14.9149 129.394 16.3383C130.026 17.6035 130.343 19.1851 130.343 20.9247ZM121.486 16.3383C120.537 16.3383 119.588 16.6546 118.956 17.1291C118.165 17.6035 117.849 18.3943 117.532 19.5014H125.282C125.124 18.3943 124.649 17.6035 124.017 17.1291C123.226 16.6546 122.435 16.3383 121.486 16.3383Z" fill="#1EA2B4"/>
        <path d="M109.467 11.912C109.626 11.912 109.784 11.912 109.942 12.0701C110.1 12.2283 110.1 12.3864 110.1 12.5446V30.7321C110.1 32.6299 109.626 34.2114 108.519 35.3185C107.57 36.5837 106.304 37.3745 104.723 37.8489C103.141 38.1652 101.718 38.4815 99.9783 38.4815C98.3968 38.4815 96.8152 38.3234 95.3919 37.8489C93.9685 37.3745 92.7033 36.7418 91.7544 36.1092C91.5962 35.9511 91.5962 35.7929 91.5962 35.6348C91.5962 35.4766 91.5962 35.3185 91.5962 35.3185L93.0196 32.6299C93.1777 32.4717 93.3359 32.3136 93.494 32.3136C93.6522 32.3136 93.6522 32.3136 93.8104 32.3136C94.6011 32.788 95.55 33.2625 96.4989 33.4207C97.4479 33.5788 98.3968 33.737 99.662 33.737C100.927 33.737 102.192 33.4207 103.141 32.9462C104.248 32.4717 104.723 31.5228 104.723 30.2576V28.5179C103.299 30.2576 101.402 31.0484 99.1875 31.0484C97.4479 31.0484 95.8663 30.5739 94.6011 29.7832C93.1777 28.8342 92.0707 27.7272 91.2799 26.1457C90.4892 24.7223 90.1729 22.9826 90.1729 21.2429C90.1729 19.5033 90.4892 17.9217 91.2799 16.3402C92.2288 14.7587 93.1777 13.6516 94.6011 12.7027C96.0245 11.7538 97.4479 11.4375 99.1875 11.4375C101.244 11.4375 102.983 12.2283 104.565 13.9679L104.723 12.3864C104.723 12.0701 105.039 11.7538 105.355 11.7538H109.467V11.912ZM99.9783 25.6712C101.085 25.6712 102.192 25.1967 102.983 24.2478C103.774 23.2989 104.248 22.35 104.248 21.0848C104.248 19.8196 103.774 18.8707 102.983 17.9217C102.192 16.9728 101.244 16.4984 99.9783 16.4984C98.7131 16.4984 97.7642 16.9728 96.9734 17.7636C96.1826 18.5543 95.7082 19.6614 95.7082 20.9266C95.7082 22.1918 96.0245 23.2989 96.8152 24.0897C97.7642 25.1967 98.7131 25.6712 99.9783 25.6712Z" fill="#1EA2B4"/>
        <path d="M88.2743 11.5939C88.4325 11.5939 88.5906 11.5939 88.7488 11.7521C88.9069 11.9102 88.9069 12.0684 88.9069 12.2265V15.7059C88.9069 15.864 88.9069 16.0222 88.7488 16.1803C88.5906 16.3385 88.4325 16.3385 88.2743 16.3385H85.2694V30.2559C85.2694 30.414 85.2694 30.5722 85.1113 30.7303C84.9531 30.8885 84.795 30.8885 84.6368 30.8885H80.0504C79.8922 30.8885 79.7341 30.8885 79.5759 30.7303C79.5759 30.5722 79.5759 30.414 79.5759 30.2559V16.1803H76.4129C76.2547 16.1803 76.0966 16.1803 75.9384 16.0222C75.7803 15.864 75.7803 15.7059 75.7803 15.5477V12.0684C75.7803 11.9102 75.7803 11.7521 75.9384 11.5939C76.0966 11.5939 76.2547 11.5939 76.4129 11.5939H79.5759V6.6912C79.5759 6.53305 79.5759 6.3749 79.7341 6.21675C79.8922 6.05859 80.0504 6.05859 80.2085 6.05859H84.7949C84.9531 6.05859 85.1113 6.05859 85.2694 6.21675C85.4276 6.3749 85.4276 6.53305 85.4276 6.6912V11.5939H88.2743Z" fill="#1EA2B4"/>
        <path d="M70.8779 10.0136C70.0872 10.0136 69.2964 9.69728 68.6638 9.06467C68.1894 8.43207 67.873 7.79946 67.873 6.85054C67.873 5.90163 68.1894 5.26902 68.822 4.63641C69.2964 4.0038 70.0872 3.6875 70.8779 3.6875C71.6687 3.6875 72.4595 4.0038 73.0921 4.63641C73.7247 5.26902 74.041 6.05978 74.041 6.85054C74.041 7.6413 73.7247 8.43207 73.0921 9.06467C72.4595 9.69728 71.8269 10.0136 70.8779 10.0136ZM68.0312 12.0696C68.0312 11.9114 68.0312 11.7533 68.1894 11.5951C68.3475 11.5951 68.5057 11.5951 68.6638 11.5951H73.2502C73.4084 11.5951 73.5665 11.5951 73.7247 11.7533C73.8828 11.9114 73.8828 12.0696 73.8828 12.2277V30.2571C73.8828 30.4152 73.8828 30.5734 73.7247 30.7315C73.5665 30.8897 73.4084 30.8897 73.2502 30.8897H68.6638C68.5057 30.8897 68.3475 30.8897 68.1894 30.7315C68.0312 30.5734 68.0312 30.4152 68.0312 30.2571V12.0696Z" fill="#1EA2B4"/>
        <path d="M60.756 16.3397C62.1794 16.656 63.4446 17.4467 64.3935 18.712C65.5006 19.9772 65.975 21.4005 65.975 22.9821C65.975 25.5125 65.1843 27.5685 63.4446 28.8337C61.8631 30.0989 59.3326 30.7315 56.0114 30.7315H46.6805C46.5223 30.7315 46.3642 30.7315 46.206 30.5734C46.0479 30.4152 46.0479 30.2571 46.0479 30.0989V4.32011C46.0479 4.16196 46.0479 4.0038 46.206 3.84565C46.206 3.84565 46.3642 3.6875 46.5223 3.6875H55.8533C57.593 3.6875 59.0163 4.0038 60.1234 4.63641C61.3886 5.26902 62.3375 6.05978 62.812 7.16685C63.4446 8.27391 63.7609 9.38098 63.7609 10.8043C63.7609 12.0696 63.4446 13.3348 62.812 14.2837C62.3375 15.2326 61.5468 16.0234 60.756 16.3397ZM58.3837 11.5951C58.3837 10.0136 57.4348 9.06467 55.3788 9.06467H51.8995V14.2837H55.3788C56.3277 14.2837 57.1185 14.1255 57.593 13.6511C58.0674 13.1766 58.3837 12.3859 58.3837 11.5951ZM56.1696 25.5125C57.2767 25.5125 58.2256 25.1962 59.0163 24.7217C59.6489 24.2473 60.1234 23.2984 60.1234 22.3495C60.1234 21.2424 59.8071 20.4516 59.0163 19.9772C58.3837 19.5027 57.4348 19.1864 56.1696 19.1864H51.8995V25.5125H56.1696Z" fill="#1EA2B4"/>
        <path d="M13.3105 1.3142C13.785 0.839742 14.4176 0.523438 15.0502 0.523438H19.6366C20.2692 0.523438 20.5855 1.15605 20.1111 1.6305L11.0964 11.4359H16.1573L21.2182 16.8131H11.0964L21.2182 27.7256H15.0502C14.4176 27.7256 13.6269 27.4093 13.1524 26.9349L2.8725 15.8642C2.08174 14.9153 2.08174 13.3338 3.03066 12.3849L13.3105 1.3142Z" fill="#1EA2B4"/>
        <path d="M27.3861 37.6888C26.9117 38.1632 26.2791 38.4795 25.4883 38.4795H20.9019C20.2693 38.4795 19.953 37.8469 20.4274 37.3725L29.6003 27.567H24.5394L19.4785 22.1898H29.6003L19.4785 11.2773H25.6465C26.2791 11.2773 27.0698 11.5936 27.5443 12.0681L37.8242 23.1388C38.7731 24.0877 38.7731 25.6692 37.8242 26.6181L27.3861 37.6888Z" fill="#1EA2B4"/>
    </g>
    <defs>
        <clipPath id="clip0_24603_55927">
            <rect width="145.5" height="37.9565" fill="white" transform="translate(0.5 0.523438)"/>
        </clipPath>
    </defs>
</svg>
