<svg width="147" height="47" viewBox="0 0 147 47" fill="none" xmlns="http://www.w3.org/2000/svg">
    <path d="M63.4561 17.0286C64.3572 17.011 65.249 17.2102 66.0558 17.6094C66.7524 17.9484 67.3607 18.4439 67.831 19.0566V17.2336H70.4643V29.9926C70.4836 31.0665 70.2312 32.1278 69.7315 33.0794C69.2477 33.9784 68.5124 34.7191 67.6139 35.2104C66.5968 35.7494 65.4568 36.0164 64.305 35.9854C62.7932 36.0432 61.3007 35.6239 60.0421 34.7886C58.9459 34.047 58.2391 32.8551 58.118 31.5419H60.7076C60.9171 32.209 61.3697 32.7739 61.9771 33.1255C62.6788 33.5423 63.4847 33.7515 64.3017 33.7289C65.2481 33.7699 66.1719 33.4243 66.8567 32.7723C67.5491 32.0173 67.9016 31.0121 67.8301 29.9926V27.9002C67.3497 28.5246 66.7356 29.0343 66.0322 29.3925C65.2372 29.8043 64.3521 30.0119 63.4561 29.996C62.3936 30.006 61.3495 29.7181 60.4442 29.164C59.5264 28.5999 58.7818 27.7955 58.2913 26.8397C57.7529 25.7935 57.4811 24.6317 57.5013 23.4566C57.4786 22.2924 57.7503 21.1407 58.2913 20.1087C58.786 19.1704 59.5306 18.3853 60.4442 17.8413C61.3537 17.3006 62.3961 17.0194 63.4561 17.0286ZM67.831 23.4993C67.8503 22.7142 67.6652 21.9366 67.2925 21.2436C66.9661 20.6385 66.479 20.1346 65.8842 19.7856C65.3146 19.4541 64.6659 19.2809 64.0064 19.2834C63.3485 19.28 62.7006 19.4491 62.1285 19.773C61.5329 20.1128 61.0432 20.61 60.7151 21.2101C60.3416 21.8981 60.1565 22.6724 60.1767 23.4541C60.159 24.2467 60.3441 25.031 60.7151 25.7324C61.0416 26.3517 61.5346 26.869 62.1386 27.2264C62.7032 27.5612 63.3485 27.7386 64.0055 27.7386C64.6651 27.7411 65.3138 27.5679 65.8833 27.2364C66.4798 26.8849 66.9678 26.376 67.2917 25.7667C67.6636 25.0695 67.8495 24.2886 67.831 23.4993ZM75.2278 15.5705C74.7811 15.5814 74.3503 15.4082 74.0365 15.0918C73.7185 14.7796 73.5443 14.351 73.5553 13.9066C73.5443 13.4622 73.7185 13.0336 74.0365 12.7214C74.3503 12.405 74.7811 12.2318 75.2278 12.2427C75.667 12.2351 76.0893 12.4084 76.3956 12.7214C76.7136 13.0336 76.8877 13.4622 76.8768 13.9066C76.8877 14.351 76.7136 14.7796 76.3956 15.0918C76.0893 15.4048 75.667 15.5781 75.2278 15.5705ZM76.51 17.2336V29.7884H73.9019V17.2336H76.51ZM85.4186 29.9926C84.2896 30.0085 83.1765 29.7298 82.1897 29.1841C81.234 28.6509 80.4482 27.8617 79.9223 26.9058C79.3561 25.8604 79.0726 24.6861 79.0979 23.4993C79.0751 22.3133 79.3671 21.1423 79.9451 20.1045C80.4835 19.1428 81.2861 18.3527 82.2578 17.8262C83.2632 17.2872 84.3906 17.0127 85.5331 17.0286C86.6756 17.0127 87.8029 17.2872 88.8083 17.8262C89.78 18.3527 90.5826 19.1428 91.1211 20.1045C91.6991 21.1423 91.991 22.3133 91.9683 23.4993C91.9902 24.687 91.6898 25.8596 91.0984 26.8916C90.5397 27.86 89.7194 28.6543 88.7309 29.1841C87.7138 29.7281 86.5738 30.006 85.4186 29.9926ZM85.4186 27.737C86.0791 27.7395 86.7294 27.5746 87.3082 27.2582C87.9115 26.9234 88.407 26.4254 88.7385 25.8228C89.123 25.1097 89.3131 24.3078 89.2879 23.4985C89.3131 22.6958 89.1322 21.899 88.7612 21.1859C88.4423 20.5883 87.9569 20.0944 87.3646 19.763C86.7908 19.4458 86.1439 19.2809 85.4868 19.2842C84.8331 19.2792 84.1895 19.4449 83.6199 19.763C83.0352 20.0944 82.5615 20.5891 82.257 21.1859C81.9011 21.904 81.7278 22.6983 81.7522 23.4985C81.6782 24.6376 82.0525 25.7608 82.7946 26.6313C83.4676 27.3595 84.4251 27.7629 85.4186 27.737ZM97.6017 19.3529V26.3057C97.5664 26.6748 97.6867 27.0423 97.934 27.3193C98.2613 27.5562 98.6643 27.6658 99.0673 27.6265H100.67V29.7909H98.6088C97.6379 29.8562 96.6754 29.5641 95.9065 28.9707C95.2183 28.2617 94.875 27.2875 94.9684 26.3057V19.3587H93.4801V17.2395H94.9684V14.1184H97.6017V17.2395H100.671V19.3587L97.6017 19.3529ZM106.121 19.3529V26.3057C106.086 26.6748 106.206 27.0423 106.453 27.3193C106.78 27.5562 107.183 27.6658 107.586 27.6265H109.189V29.7909H107.128C106.157 29.8562 105.195 29.5641 104.426 28.9707C103.737 28.2617 103.394 27.2875 103.488 26.3057V19.3587H101.999V17.2395H103.488V14.1184H106.121V17.2395H109.19V19.3587L106.121 19.3529ZM123.022 17.2336V29.7884H120.414V28.3078C119.983 28.8384 119.429 29.2569 118.799 29.5264C118.133 29.8227 117.411 29.975 116.681 29.9709C115.755 29.9859 114.839 29.775 114.013 29.3557C113.228 28.9447 112.584 28.3095 112.162 27.5327C111.69 26.6346 111.459 25.6303 111.489 24.6167V17.2345H114.077V24.2291C114.013 25.1674 114.317 26.0948 114.924 26.8154C115.529 27.4315 116.372 27.7595 117.237 27.7152C118.105 27.7579 118.951 27.4306 119.562 26.8154C120.176 26.0981 120.485 25.1691 120.421 24.2291V17.2345L123.022 17.2336ZM131.037 29.9926C130.119 30.0077 129.209 29.8252 128.369 29.457C127.633 29.1381 126.991 28.6359 126.506 27.9989C126.055 27.403 125.798 26.6823 125.773 25.9366H128.475C128.523 26.4706 128.804 26.9586 129.243 27.2691C129.749 27.639 130.367 27.8282 130.994 27.8047C131.593 27.8407 132.188 27.6951 132.701 27.3863C133.076 27.1544 133.305 26.7451 133.305 26.3057C133.317 25.8537 133.05 25.4378 132.632 25.2578C131.942 24.9431 131.227 24.6912 130.491 24.5045C129.706 24.2986 128.934 24.0475 128.178 23.7512C127.581 23.5068 127.051 23.1243 126.633 22.6347C126.179 22.0764 125.946 21.3708 125.98 20.6527C125.977 19.994 126.186 19.3512 126.576 18.8189C127.012 18.2338 127.603 17.7802 128.282 17.509C129.091 17.1767 129.96 17.0135 130.835 17.0302C132.084 16.97 133.314 17.3541 134.305 18.1125C135.187 18.8423 135.702 19.922 135.713 21.0628H133.105C133.078 20.538 132.828 20.0492 132.418 19.7186C131.937 19.3621 131.345 19.1846 130.746 19.2164C130.192 19.1821 129.641 19.3169 129.166 19.604C128.818 19.8283 128.61 20.2166 128.617 20.6293C128.611 20.9498 128.745 21.257 128.984 21.4721C129.242 21.709 129.546 21.8906 129.877 22.0078C130.228 22.1367 130.747 22.2999 131.434 22.4974C132.202 22.6916 132.956 22.9393 133.69 23.2382C134.275 23.4867 134.795 23.8651 135.213 24.343C135.661 24.8879 135.897 25.5759 135.876 26.2798C135.886 26.9644 135.677 27.634 135.281 28.1939C134.853 28.7807 134.27 29.2377 133.598 29.5155C132.788 29.8512 131.915 30.0136 131.037 29.9926Z" fill="white"/>
    <path d="M51.5 24.7019V24.6973C51.5 13.8917 42.6974 5 32 5C21.3026 5 12.5 13.8917 12.5 24.6973C12.5 29.7044 14.3902 34.528 17.7829 38.1785C19.1822 39.925 21.6188 42.5545 23.8373 42.8961C24.7995 43.0458 25.7792 43.0335 26.7376 42.8608C26.7953 42.8723 26.8546 42.8723 26.9124 42.8608C26.9618 42.8485 27.0089 42.8255 27.0492 42.794C27.3722 42.5836 27.718 42.4117 28.0798 42.2811C28.6346 42.0378 28.2318 41.8581 28.3656 41.6531C28.4993 41.4482 29.0944 41.1065 29.2251 40.7495C29.3604 40.216 29.3863 39.6594 29.3011 39.1151C29.292 39.0974 29.2707 39.0606 29.2403 39.0091C28.7881 38.2445 28.1991 37.572 27.5029 37.0246C25.6796 36.3436 24.0304 35.2596 22.6768 33.8508C21.8232 32.9634 21.0974 31.9592 20.5206 30.8682L20.5054 30.8383C20.4164 30.6671 20.3306 30.4944 20.2477 30.3193L20.231 30.2848C20.0585 29.9155 19.9034 29.537 19.7651 29.1493L19.7507 29.1048C19.6914 28.9367 19.6351 28.7662 19.5827 28.595C19.5698 28.5528 19.5576 28.5106 19.5447 28.4684C19.4991 28.3148 19.4573 28.1613 19.4178 28.0077C19.4064 27.9655 19.3957 27.9233 19.3851 27.8811C19.2901 27.4964 19.2126 27.1049 19.1518 26.708C19.1434 26.6566 19.1373 26.6051 19.1305 26.5544C19.11 26.4093 19.0925 26.2627 19.0765 26.1161C19.0697 26.0508 19.0636 25.9856 19.0575 25.9195C19.0446 25.779 19.0347 25.637 19.0263 25.4942C19.0263 25.4328 19.018 25.3714 19.0157 25.3107C19.0066 25.1096 19.0005 24.9077 19.0005 24.7042C19.0005 17.5023 24.8672 11.5763 31.997 11.5763H32.0403C39.1549 11.5978 44.998 17.5176 44.998 24.7042C44.998 27.2692 44.2531 29.7796 42.857 31.9223C42.7521 32.0828 42.6427 32.2402 42.5317 32.396C42.4678 32.4843 42.4017 32.5695 42.3364 32.657C42.2794 32.7338 42.2239 32.8106 42.1661 32.8812C42.1084 32.9518 42.0483 33.0248 41.989 33.0969C41.9183 33.1822 41.8484 33.2674 41.7762 33.3511C41.7238 33.4125 41.6691 33.4708 41.6151 33.5307C41.5323 33.6228 41.4502 33.7142 41.365 33.8032C40.7152 34.4873 39.994 35.0984 39.2142 35.6258C38.3781 36.2914 37.21 37.2925 37.6455 37.1674C38.8182 36.8319 38.4275 37.1674 38.4275 37.1674C38.4275 37.1674 37.7207 37.7693 37.4669 38.0334C37.457 38.0426 37.4479 38.0526 37.4387 38.0625L37.4304 38.071C37.3931 38.117 37.3673 38.1708 37.3544 38.2284C37.3361 38.3159 37.4935 38.3136 37.6318 38.3251L37.6918 38.5946C37.4121 38.7673 36.7798 38.8372 36.5571 39.0253C36.2896 39.2471 37.2252 39.1727 37.2776 39.1788C37.3301 39.1849 37.3019 39.2771 37.0496 39.4222C36.7973 39.5673 36.9979 39.6133 37.0694 39.6701C37.1408 39.7269 37.4015 39.5105 37.4935 39.5711C37.5854 39.6318 37.1575 39.7945 37.2282 39.9795C37.2814 40.1177 37.7716 40.0801 38.0202 40.0563L38.0346 40.1208C37.419 40.4885 36.7578 40.7726 36.0684 40.9653C35.8815 40.9991 35.9521 41.0467 36.1087 41.0866C36.0129 41.0804 35.9172 41.0804 35.8214 41.0866L36.1718 41.0996H36.1786L36.171 41.1088C36.0699 41.1227 35.9681 41.1265 35.867 41.1196C35.8982 41.1265 35.9529 41.1342 35.9195 41.1434C36.0585 41.1518 36.1969 41.1572 36.3238 41.1518L36.4591 41.1434L36.5351 41.1503C36.9007 41.168 37.2677 41.1472 37.6288 41.0873C38.0088 41.0305 38.0452 40.9507 38.1995 41.0451C38.3538 41.1395 37.8606 41.3246 37.5816 41.3729C37.4296 41.3998 37.4501 41.4351 37.5406 41.4543C37.4357 41.4512 37.3308 41.4651 37.2305 41.495C37.1059 41.5365 37.1879 41.5326 37.3019 41.5234C37.4159 41.5142 37.5467 41.495 37.5596 41.515C37.5596 41.5004 37.6356 41.4712 37.5193 41.4804L37.5953 41.4628C37.6744 41.472 37.7534 41.4697 37.8317 41.4566C37.9077 41.4428 38.0825 41.3952 38.3021 41.333L38.3196 41.4098L38.4617 41.3583C38.578 41.3123 38.6981 41.2678 38.8197 41.224C38.9413 41.1802 39.0652 41.1365 39.1914 41.0935C39.3175 41.0505 39.4414 40.9968 39.5714 40.9476L39.8693 40.8317C40.0472 40.771 40.152 40.7442 40.2493 40.7066C40.1634 40.7588 40.0738 40.8056 39.9826 40.8478C39.9012 40.8862 39.8176 40.9284 39.7416 40.9645C39.677 40.9929 39.6147 41.0282 39.5569 41.0689C39.5471 41.0443 39.4597 41.0751 39.3616 41.1165C39.5493 41.0505 39.4118 41.1395 39.4376 41.1511C39.8534 40.9975 39.6595 41.0328 39.7758 40.963C39.8731 40.9123 39.975 40.8701 40.0798 40.8378L39.9696 40.9069C40.1004 40.8363 40.2372 40.778 40.3778 40.7319L40.4469 40.6843L40.4652 40.6766C40.5229 40.652 40.583 40.6306 40.6392 40.5998C40.6278 40.5783 40.5906 40.5929 40.5359 40.6183C40.5579 40.6021 40.5799 40.5868 40.602 40.5707C40.507 40.6267 40.4044 40.6697 40.298 40.6989L40.5169 40.563C40.6377 40.5108 40.7783 40.4394 40.9204 40.3672C40.9577 40.3718 40.9926 40.3887 41.02 40.4156C41.0504 40.4478 41.0732 40.4878 41.0854 40.53C41.0952 40.5584 41.1006 40.5876 41.1021 40.6175L40.966 40.6728C40.8649 40.7434 40.7639 40.8163 40.662 40.8854C40.7988 40.7994 40.9417 40.725 41.0907 40.662L41.0253 40.6805L41.1013 40.6313C41.1013 40.7196 41.039 40.7979 40.887 40.9008L40.8406 40.9315V40.9207C40.738 40.9776 40.6316 41.0252 40.5252 41.0743L40.2083 41.2232L40.1999 41.244L40.5169 41.095C40.6005 41.0551 40.6848 41.0182 40.7669 40.9745C40.4325 41.1802 40.0836 41.3599 39.7219 41.5119C39.3966 41.6309 39.5159 41.4451 39.2659 41.5265C39.1328 41.5695 38.9299 41.68 38.7209 41.7768L38.5332 41.832L38.3455 41.8597L38.2596 41.8712L38.1729 41.8789L37.8226 41.9096C37.7633 41.9142 37.704 41.9226 37.6424 41.9242L37.4578 41.9318C37.3331 41.9372 37.2047 41.9457 37.0724 41.9503C36.9402 41.9549 36.8011 41.9503 36.6582 41.9579H37.0869C37.2297 41.9533 37.3726 41.9449 37.5148 41.9395C37.4213 41.948 37.3361 41.961 37.2472 41.9725C37.2024 41.9779 37.156 41.984 37.1074 41.9879H37.118L37.2799 41.9802L37.6022 41.9648H37.685L37.7694 41.9564L37.9464 41.9403L38.138 41.9234C38.2049 41.9172 38.2748 41.9119 38.3493 41.9019L38.3417 41.9203C38.3629 41.9203 38.3888 41.9203 38.4177 41.9142C38.3462 41.9418 38.2717 41.9625 38.1965 41.9756C37.8765 42.0224 37.7982 42.0431 37.6189 42.2681C37.4395 42.493 37.4729 42.4485 37.1332 42.4132C36.8292 42.4032 36.5298 42.4892 36.2774 42.6604C36.1315 42.7617 36.4781 42.9283 37.1135 42.8754C37.7488 42.8224 37.232 43.0619 37.9495 42.8539C38.667 42.6458 39.202 42.6312 39.5341 42.5153C39.7774 42.3963 40.0502 42.3533 40.3177 42.3925C40.5024 42.4546 40.4697 42.2604 40.7388 42.1437L40.7897 42.1222C41.0884 42.017 41.1591 42.1107 41.2047 41.9572L41.2092 41.9457L41.302 41.9019L41.321 41.8927V42.0086C41.739 41.7783 42.1471 41.5326 42.5461 41.2716V41.3821C42.7954 41.2217 43.0363 41.0497 43.2773 40.8785C43.3335 40.8447 43.3875 40.8079 43.4392 40.7672C48.4956 37.1044 51.4992 31.1899 51.4954 24.9046V24.705M41.2883 41.8835L41.2206 41.9219C41.2472 41.8658 41.2814 41.8144 41.3232 41.7683V41.8696L41.289 41.8873" fill="#EF724B"/>
</svg>
