<svg width="315" height="312" viewBox="0 0 315 312" fill="none" xmlns="http://www.w3.org/2000/svg">
<path d="M223.125 23.25C236.104 23.25 248.792 27.0988 259.584 34.3098C270.376 41.5208 278.788 51.77 283.755 63.7614C288.722 75.7528 290.021 88.9478 287.489 101.678C284.957 114.408 278.707 126.101 269.529 135.279C260.351 144.457 248.658 150.707 235.928 153.239C223.198 155.771 210.003 154.472 198.011 149.505C186.02 144.538 175.771 136.126 168.56 125.334C161.349 114.542 157.5 101.854 157.5 88.875C157.5 71.4702 164.414 54.7782 176.721 42.4711C189.028 30.164 205.72 23.25 223.125 23.25" stroke="url(#paint0_linear_4106_6)" stroke-width="8" stroke-linecap="round" stroke-linejoin="round"/>
<path d="M262.5 180.75V185.672C262.5 195.533 258.582 204.991 251.609 211.964C244.636 218.937 235.178 222.855 225.317 222.855H163.341L101.364 272.441V222.855H76.5581C66.6965 222.855 57.2389 218.937 50.2657 211.964C43.2925 204.991 39.375 195.533 39.375 185.672V86.4993C39.375 76.6377 43.2925 67.18 50.2657 60.2068C57.2389 53.2337 66.6965 49.3162 76.5581 49.3162H131.25" stroke="url(#paint1_linear_4106_6)" stroke-width="8" stroke-linecap="round" stroke-linejoin="round"/>
<path d="M240.948 88.1399C240.849 88.1324 240.749 88.1461 240.655 88.1801C240.561 88.214 240.475 88.2674 240.403 88.3368C240.331 88.4062 240.275 88.49 240.238 88.5828C240.2 88.6755 240.183 88.7751 240.187 88.8749C240.187 89.0209 240.231 89.1635 240.312 89.2846C240.393 89.4058 240.509 89.4999 240.644 89.5552C240.779 89.6104 240.927 89.6242 241.07 89.5947C241.213 89.5653 241.344 89.494 241.446 89.3898C241.549 89.2857 241.618 89.1535 241.645 89.0101C241.671 88.8667 241.655 88.7185 241.597 88.5844C241.54 88.4504 241.443 88.3365 241.321 88.2574C241.198 88.1782 241.055 88.1373 240.909 88.1399" stroke="url(#paint2_linear_4106_6)" stroke-width="8" stroke-linecap="round" stroke-linejoin="round"/>
<path d="M205.302 88.14C205.157 88.1452 205.018 88.1926 204.901 88.2764C204.783 88.3603 204.693 88.4768 204.641 88.6115C204.59 88.7461 204.579 88.893 204.61 89.0338C204.641 89.1746 204.713 89.3031 204.817 89.4033C204.921 89.5035 205.052 89.5709 205.194 89.5972C205.336 89.6235 205.482 89.6075 205.615 89.5512C205.748 89.4949 205.861 89.4007 205.94 89.2805C206.02 89.1603 206.063 89.0193 206.063 88.875C206.063 88.6823 205.987 88.4974 205.852 88.3599C205.717 88.2224 205.534 88.1435 205.341 88.14" stroke="url(#paint3_linear_4106_6)" stroke-width="8" stroke-linecap="round" stroke-linejoin="round"/>
<defs>
<linearGradient id="paint0_linear_4106_6" x1="146.683" y1="23.2501" x2="288.339" y2="25.9762" gradientUnits="userSpaceOnUse">
<stop stop-color="#E0EAE8"/>
<stop offset="1" stop-color="#E0EAE8"/>
</linearGradient>
<linearGradient id="paint1_linear_4106_6" x1="20.9856" y1="49.3163" x2="261.801" y2="53.9508" gradientUnits="userSpaceOnUse">
<stop stop-color="#E0EAE8"/>
<stop offset="1" stop-color="#E0EAE8"/>
</linearGradient>
<linearGradient id="paint2_linear_4106_6" x1="240.065" y1="88.1379" x2="241.652" y2="88.1685" gradientUnits="userSpaceOnUse">
<stop stop-color="#E0EAE8"/>
<stop offset="1" stop-color="#E0EAE8"/>
</linearGradient>
<linearGradient id="paint3_linear_4106_6" x1="204.472" y1="88.14" x2="206.058" y2="88.1706" gradientUnits="userSpaceOnUse">
<stop stop-color="#E0EAE8"/>
<stop offset="1" stop-color="#E0EAE8"/>
</linearGradient>
</defs>
</svg>
