<svg transform="scale(4)" id="_0200_Artificial_Intelligence_3" data-name="0200_Artificial_Intelligence_3" xmlns="http://www.w3.org/2000/svg" xmlns:xlink="http://www.w3.org/1999/xlink" viewBox="0 0 500 500" class="show_show__wrapper__graphic__5Waiy "><title>React</title><defs><style>.cls-1{fill:url(#linear-gradient);}.cls-2{fill:#fed490;}.cls-3{fill:#000111;}.cls-4{fill:#c64234;}.cls-5{fill:#fff;}.cls-6{fill:url(#linear-gradient-2);}.cls-7{fill:url(#linear-gradient-3);}.cls-8{fill:url(#linear-gradient-4);}.cls-9{fill:url(#linear-gradient-5);}</style><linearGradient id="linear-gradient" x1="319.1" y1="-8.81" x2="446.27" y2="176.84" gradientUnits="userSpaceOnUse"><stop offset="0" stop-color="#0a6b5b"></stop><stop offset="0.78" stop-color="#005146"></stop><stop offset="0.91" stop-color="#005045"></stop></linearGradient><linearGradient id="linear-gradient-2" x1="-5906.63" y1="825.69" x2="-5824.39" y2="825.69" gradientTransform="matrix(-0.98, 0.21, 0.21, 0.98, -5506.68, 591.2)" gradientUnits="userSpaceOnUse"><stop offset="0" stop-color="#f38374"></stop><stop offset="1" stop-color="#c64234"></stop></linearGradient><linearGradient id="linear-gradient-3" x1="371.66" y1="191.7" x2="417.31" y2="191.7" gradientTransform="translate(-205.1)" xlink:href="#linear-gradient-2"></linearGradient><linearGradient id="linear-gradient-4" x1="-1157.21" y1="851.58" x2="-1074.97" y2="851.58" gradientTransform="translate(872.54 -892.99) rotate(-17.21)" xlink:href="#linear-gradient-2"></linearGradient><linearGradient id="linear-gradient-5" x1="-5985.1" y1="191.7" x2="-5939.46" y2="191.7" gradientTransform="matrix(-1, 0, 0, 1, -5639.7, 0)" xlink:href="#linear-gradient-2"></linearGradient></defs><g id="screen"><path class="cls-1" d="M312.13,58v20.7s76.51-3.1,155.78,52.46v-20.4S415.34,67,312.13,58Z"></path><path class="cls-2" d="M312.13,87.26V108s76.51-3.1,155.78,52.46V140S415.34,96.27,312.13,87.26Z"></path><path class="cls-2" d="M312.13,116.53v20.69s76.51-3.1,155.78,52.46v-20.4S415.34,125.53,312.13,116.53Z"></path><path class="cls-2" d="M312.13,145.79v20.69s76.51-3.1,155.78,52.47v-20.4S415.34,154.8,312.13,145.79Z"></path><path class="cls-2" d="M312.13,175.06v20.69s76.51-3.1,155.78,52.46v-20.4S415.34,184.07,312.13,175.06Z"></path><path class="cls-3" d="M60.47,377.63a1.37,1.37,0,0,1-1.37-1.36v-34a1.37,1.37,0,0,1,2.74,0v31.91c12.79-5.64,86.83-36.24,186.54-36.24a1.37,1.37,0,1,1,0,2.73c-108.62,0-186.54,36.49-187.32,36.86A1.37,1.37,0,0,1,60.47,377.63Z"></path><path class="cls-3" d="M488.63,438.57a1.38,1.38,0,0,1-.68-.18c-.94-.54-95.48-53.82-228-53.95-132.55.13-227.1,53.41-228,53.95a1.35,1.35,0,0,1-1.36,0,1.37,1.37,0,0,1-.68-1.18V92.83a1.39,1.39,0,0,1,.26-.81C52.2,61.44,96.33,40.43,161.23,29.6A566.26,566.26,0,0,1,260,22.34a565.86,565.86,0,0,1,98.64,7.26C423.5,40.43,467.62,61.44,489.74,92a1.39,1.39,0,0,1,.26.81V437.21a1.37,1.37,0,0,1-.68,1.18A1.39,1.39,0,0,1,488.63,438.57ZM259.91,381.71c122.54.12,212.82,45.44,227.35,53.19V93.27c-21.47-29.38-66.11-50.45-129.12-61A565.43,565.43,0,0,0,260,25.07a564.67,564.67,0,0,0-98.27,7.23C98.67,42.82,54,63.89,32.56,93.27V434.9C47.1,427.15,137.37,381.83,259.91,381.71Z"></path><path class="cls-2" d="M57.66,108.36V331.49s73-43.44,194.09-43.44V53.14S147.44,39.22,57.66,108.36Z"></path><path class="cls-4" d="M144.9,150.31a27.73,27.73,0,0,1-8.76-1.45c-20-6.58-33.42-33.08-34-34.2a1.37,1.37,0,0,1,2.45-1.23c.13.27,13.5,26.62,32.39,32.83a24.67,24.67,0,0,0,19.53-1.61c12.65-6.45,20.77-18.66,29.36-31.59,11.31-17,23-34.59,46-38.29,24-3.86,35.2,12.49,44.2,25.63,5.88,8.59,11,16,18.22,17.27,4.74.83,10.24-1.09,16.78-5.83,9.85-7.13,17.27-13.32,23.82-18.78C353,78,362,70.4,386.19,75.4a1.37,1.37,0,1,1-.55,2.68c-22.87-4.73-31.06,2.1-49,17.08-6.26,5.22-14,11.71-24,18.9-7.18,5.2-13.35,7.26-18.86,6.3-8.39-1.45-14-9.69-20-18.41-9-13.15-19.22-28.07-41.51-24.48C210.5,81,199.15,98.06,188.17,114.58c-8.41,12.65-17.1,25.73-30.4,32.51A28.22,28.22,0,0,1,144.9,150.31Z"></path><circle class="cls-4" cx="383.59" cy="78.05" r="8.88"></circle><circle class="cls-4" cx="300.17" cy="120.26" r="8.88"></circle><circle class="cls-4" cx="247.61" cy="79.59" r="8.88"></circle><circle class="cls-4" cx="156.75" cy="146.43" r="8.88"></circle><path class="cls-3" d="M99.14,147.77a1.32,1.32,0,0,1-1-.4,1.35,1.35,0,0,1,0-1.93,166.77,166.77,0,0,1,27.91-21.53c21.56-13.14,41.4-17.3,57.37-12,6.58,2.17,12.3,4.29,17.34,6.16,24.53,9.1,33.72,12.5,59.62-7.17,31.47-23.9,54.37-31.49,85.23-3.16a1.37,1.37,0,1,1-1.85,2c-29.61-27.17-50.75-20.19-81.73,3.33-27.1,20.58-38.1,16.5-62.22,7.55-5-1.86-10.71-4-17.25-6.13-36.85-12.15-82,32.45-82.49,32.9A1.36,1.36,0,0,1,99.14,147.77Z"></path></g><g id="robot"><polygon class="cls-3" points="340.19 268.05 285.48 259.76 293.71 298.49 336.18 312 340.19 268.05"></polygon><path class="cls-3" d="M336.18,313.37a1.45,1.45,0,0,1-.41-.06L293.29,299.8a1.36,1.36,0,0,1-.92-1L284.14,260a1.36,1.36,0,0,1,1.54-1.63l54.72,8.28a1.37,1.37,0,0,1,1.15,1.48l-4,44a1.34,1.34,0,0,1-.61,1A1.31,1.31,0,0,1,336.18,313.37Zm-41.3-15.94L335,310.18l3.73-41-51.49-7.8Z"></path><path class="cls-5" d="M351.53,199.51a13.6,13.6,0,0,1,17.72-10.61l14.12,4.73L398,198.54l14.12,4.74a13.59,13.59,0,0,1,7.75,19.14l-47.82,92.19a13.59,13.59,0,0,1-16.38,6.62h0l-12.47-4.17h0a13.6,13.6,0,0,1-9.08-15.17Z"></path><path class="cls-3" d="M360,323.32a14.9,14.9,0,0,1-4.8-.79l-12.47-4.18a14.88,14.88,0,0,1-10-16.69l17.4-102.38h0a15,15,0,0,1,19.5-11.68L412.57,202a15,15,0,0,1,8.52,21.07l-47.82,92.19A14.88,14.88,0,0,1,360,323.32Zm-7.16-123.58-17.4,102.38a12.16,12.16,0,0,0,8.16,13.64l12.47,4.18a12.16,12.16,0,0,0,14.73-6l47.82-92.19a12.23,12.23,0,0,0-7-17.22L368.81,190.2a12.22,12.22,0,0,0-15.93,9.54Z"></path><path class="cls-6" d="M376.73,214.55c-17.06-8-14-29.11-9.28-38.87,3.87-8,23.42-24.43,35.18-32.83s25.63-11.34,30.73-6,4,10.47-2.61,17l-10,7.7s11.73,2,13.95,11.69c0,0,10,2.81,8.66,13s0,25.45-5.88,27.05c-12.65,3.44-17-10.25-17-10.25S402.91,226.82,376.73,214.55Z"></path><path class="cls-3" d="M397.59,228.69a60.46,60.46,0,0,1-14.6-1.9c-21.62-5.37-31.6-19.45-32.81-27.07a1.37,1.37,0,0,1,2.7-.43c1.19,7.44,11.51,20.06,30.77,24.84,24.56,6.1,36.11-5.39,36.23-5.51a1.37,1.37,0,0,1,2,1.91C421.45,220.94,413.75,228.69,397.59,228.69Z"></path><path class="cls-3" d="M352.64,302.09a1.33,1.33,0,0,1-.28,0L335,298.44a1.37,1.37,0,0,1,.56-2.68l16.2,3.39,22.69-57.06-27.32-12.56a1.37,1.37,0,1,1,1.15-2.48l28.5,13.1a1.38,1.38,0,0,1,.7,1.75l-23.61,59.33A1.36,1.36,0,0,1,352.64,302.09Z"></path><circle class="cls-5" cx="361.96" cy="277.55" r="5.05"></circle><path class="cls-3" d="M362,284a6.42,6.42,0,1,1,1.33-.14A6,6,0,0,1,362,284Zm0-10.1a4.13,4.13,0,0,0-.78.08,3.68,3.68,0,0,0-2.32,1.6,3.61,3.61,0,0,0-.51,2.77,3.68,3.68,0,1,0,7.2-1.53,3.69,3.69,0,0,0-3.59-2.92Z"></path><path class="cls-3" d="M402.87,172.66a1.36,1.36,0,0,1-1-.41,1.37,1.37,0,0,1,0-1.94c7.06-6.95,18-10,18.49-10.17a1.37,1.37,0,0,1,.73,2.64c-.11,0-10.75,3-17.3,9.48A1.34,1.34,0,0,1,402.87,172.66Z"></path><path class="cls-3" d="M420.49,204.3a1.51,1.51,0,0,1-.5-.09,1.38,1.38,0,0,1-.77-1.78c.17-.41,4-10.11,7.7-14.24A1.37,1.37,0,0,1,429,190c-3.35,3.77-7.16,13.33-7.2,13.43A1.39,1.39,0,0,1,420.49,204.3Z"></path><path class="cls-3" d="M421.16,183.58a1.39,1.39,0,0,1-.84-.28,1.37,1.37,0,0,1-.24-1.92c3.79-4.93,13.67-9.3,14.08-9.48a1.38,1.38,0,0,1,1.81.7,1.36,1.36,0,0,1-.71,1.8c-.09,0-9.65,4.28-13,8.65A1.35,1.35,0,0,1,421.16,183.58Z"></path><ellipse class="cls-3" cx="176.3" cy="191.7" rx="13.34" ry="17.03"></ellipse><ellipse class="cls-3" cx="172.29" cy="191.7" rx="9.32" ry="17.03"></ellipse><path class="cls-3" d="M172.29,210.1c-6,0-10.69-8.08-10.69-18.4s4.7-18.4,10.69-18.4S183,181.38,183,191.7,178.28,210.1,172.29,210.1Zm0-34.07c-4.31,0-7.95,7.18-7.95,15.67s3.64,15.66,7.95,15.66,8-7.17,8-15.66S176.6,176,172.29,176Z"></path><ellipse class="cls-7" cx="189.39" cy="191.7" rx="22.82" ry="29.15"></ellipse><path class="cls-5" d="M191.84,221.08a.59.59,0,0,1-.23,0c-10.47-3.75-20.89-14.48-18.73-33.35,1.55-13.59,9.31-23.87,18.88-25a.69.69,0,0,1,.76.6.69.69,0,0,1-.6.76c-8.79,1-16.23,11-17.68,23.79-1.36,11.85,2.62,26.45,17.83,31.9a.69.69,0,0,1-.23,1.33Z"></path><rect class="cls-3" x="274.3" y="367.99" width="12.39" height="81.3" transform="translate(560.99 817.27) rotate(180)"></rect><path class="cls-3" d="M286.69,450.65H274.3a1.37,1.37,0,0,1-1.37-1.37V368a1.36,1.36,0,0,1,1.37-1.36h12.39a1.37,1.37,0,0,1,1.37,1.36v81.3A1.37,1.37,0,0,1,286.69,450.65Zm-11-2.74h9.65V369.35h-9.65Z"></path><rect class="cls-3" x="205.61" y="367.99" width="12.39" height="81.3" transform="translate(423.6 817.27) rotate(180)"></rect><path class="cls-3" d="M218,450.65H205.61a1.37,1.37,0,0,1-1.37-1.37V368a1.36,1.36,0,0,1,1.37-1.36H218a1.36,1.36,0,0,1,1.37,1.36v81.3A1.37,1.37,0,0,1,218,450.65Zm-11-2.74h9.66V369.35H207Z"></path><path class="cls-5" d="M112.52,243.3a13.58,13.58,0,0,0-20.64-.61l-10,11L71.47,265.14l-10,11A13.6,13.6,0,0,0,64,296.65l86.73,57.13a13.58,13.58,0,0,0,17.53-2.22h0l8.85-9.73h0a13.59,13.59,0,0,0,.52-17.66Z"></path><path class="cls-3" d="M158.26,357.41a15,15,0,0,1-8.24-2.49L63.29,297.79a15,15,0,0,1-2.84-22.55l30.41-33.48a15,15,0,0,1,22.72.68l65.16,80.87a14.9,14.9,0,0,1-.58,19.45l-8.84,9.73A14.94,14.94,0,0,1,158.26,357.41ZM101.93,239.6a12.19,12.19,0,0,0-9,4L62.47,277.08A12.21,12.21,0,0,0,64.8,295.5l86.72,57.13a12.15,12.15,0,0,0,15.77-2l8.84-9.73A12.14,12.14,0,0,0,176.6,325l-65.15-80.87h0a12.16,12.16,0,0,0-9.15-4.55Z"></path><path class="cls-8" d="M97.86,268.72c11-15.31-2-32.25-10.87-38.45-7.26-5.06-32.37-9.9-46.72-11.49s-27.9,2.61-29.78,9.72S12.13,239.57,21,242l12.48,1.84s-9.27,7.45-6.47,17c0,0-7.35,7.33-1.22,15.54s12.42,22.22,18.33,20.75C56.89,294,54,279.94,54,279.94S81,292.21,97.86,268.72Z"></path><path class="cls-3" d="M67.39,296.66a22.23,22.23,0,0,1-6-.7,1.37,1.37,0,0,1,.79-2.62h0c.16,0,15.85,4.43,34.31-12.87,14.48-13.57,17.33-29.63,14.73-36.7a1.37,1.37,0,1,1,2.57-.94c2.66,7.23.82,24.4-15.43,39.63C85.56,294.48,74.05,296.66,67.39,296.66Z"></path><path class="cls-3" d="M160.94,333.55a1.34,1.34,0,0,1-.86-.31L110.52,293a1.36,1.36,0,0,1-.24-1.86l18.48-25.34a1.37,1.37,0,1,1,2.21,1.61l-17.71,24.29,47.65,38.72,12.49-10.86a1.37,1.37,0,0,1,1.79,2.07l-13.35,11.61A1.35,1.35,0,0,1,160.94,333.55Z"></path><circle class="cls-5" cx="141.5" cy="316.51" r="5.05"></circle><path class="cls-3" d="M141.5,322.93a6.45,6.45,0,0,1-3-.74,6.42,6.42,0,1,1,9.13-7.58h0a6.43,6.43,0,0,1-4.24,8A6.22,6.22,0,0,1,141.5,322.93Zm0-10.11a3.77,3.77,0,0,0-1.1.17,3.68,3.68,0,0,0,2.18,7,3.71,3.71,0,0,0,2.17-1.81,3.64,3.64,0,0,0,.26-2.8h0a3.66,3.66,0,0,0-1.8-2.17A3.71,3.71,0,0,0,141.51,312.82Z"></path><path class="cls-3" d="M56.53,247.05l-.31,0c-8.38-1.94-22.54-1.78-22.68-1.78a1.39,1.39,0,0,1-1.39-1.35,1.37,1.37,0,0,1,1.35-1.38c.6,0,14.64-.17,23.34,1.84a1.37,1.37,0,0,1-.31,2.7Z"></path><path class="cls-3" d="M43.68,265.89a1.32,1.32,0,0,1-.51-.1A60.82,60.82,0,0,0,27,262.25a1.37,1.37,0,1,1,.16-2.73,62,62,0,0,1,17.06,3.73,1.37,1.37,0,0,1-.51,2.64Z"></path><path class="cls-3" d="M53.23,281.32c-2.12,0-7.81-.23-12.18-2.51a1.37,1.37,0,0,1-.58-1.85,1.39,1.39,0,0,1,1.85-.58c4.7,2.46,11.55,2.2,11.62,2.2a1.34,1.34,0,0,1,1.42,1.3,1.37,1.37,0,0,1-1.31,1.43Z"></path><polygon class="cls-3" points="155.86 297.58 199.58 263.65 211.29 301.47 180.81 334 155.86 297.58"></polygon><path class="cls-3" d="M180.81,335.37h-.1a1.38,1.38,0,0,1-1-.59l-25-36.41a1.38,1.38,0,0,1,.29-1.86l43.72-33.93a1.36,1.36,0,0,1,2.14.67l11.72,37.83a1.35,1.35,0,0,1-.31,1.34l-30.48,32.52A1.36,1.36,0,0,1,180.81,335.37Zm-23.09-37.5L181,331.82l28.77-30.7-10.9-35.18Z"></path><path class="cls-3" d="M232.38,229.67h31.41a0,0,0,0,1,0,0v25.84a15.7,15.7,0,0,1-15.7,15.7h0a15.7,15.7,0,0,1-15.7-15.7V229.67A0,0,0,0,1,232.38,229.67Z" transform="translate(496.16 500.89) rotate(180)"></path><path class="cls-3" d="M263.78,272.59h-31.4a1.37,1.37,0,0,1-1.37-1.37V245.37a17.07,17.07,0,1,1,34.14,0v25.85A1.37,1.37,0,0,1,263.78,272.59Zm-30-2.74h28.67V245.37a14.34,14.34,0,0,0-28.67,0Z"></path><path class="cls-5" d="M189.62,281.83,190.85,332a26.18,26.18,0,0,0,2.79,11.15l26.81,53,1.11,2.19a26.09,26.09,0,0,0,23.31,14.34h7.21a26.09,26.09,0,0,0,23.3-14.34l1.11-2.19,26.81-53A26.2,26.2,0,0,0,306.11,332l1.23-50.13a26.14,26.14,0,0,0-26.11-26.77h-65.5A26.11,26.11,0,0,0,189.62,281.83Z"></path><path class="cls-3" d="M252.08,414h-7.21a27.43,27.43,0,0,1-24.53-15.09l-27.92-55.19A27.29,27.29,0,0,1,189.48,332l-1.23-50.13a27.49,27.49,0,0,1,27.48-28.17h65.5a27.51,27.51,0,0,1,27.48,28.17L307.47,332a27.7,27.7,0,0,1-3,11.74L276.6,398.92A27.34,27.34,0,0,1,252.08,414ZM215.73,256.43A24.74,24.74,0,0,0,191,281.79h0l1.23,50.13a24.58,24.58,0,0,0,2.64,10.57l27.92,55.2a24.74,24.74,0,0,0,22.09,13.59h7.21a24.64,24.64,0,0,0,22.08-13.59l27.92-55.2a24.57,24.57,0,0,0,2.66-10.57L306,281.79a24.76,24.76,0,0,0-24.74-25.36Z"></path><path class="cls-5" d="M220.45,348.93v47.18l1.11,2.19a26.09,26.09,0,0,0,23.31,14.34h7.21a26.09,26.09,0,0,0,23.3-14.34l1.11-2.19V348.93a28,28,0,1,0-56,0Z"></path><path class="cls-3" d="M252.08,414h-7.21a27.43,27.43,0,0,1-24.53-15.09l-1.11-2.19a1.32,1.32,0,0,1-.15-.62V348.93a29.39,29.39,0,1,1,58.78,0v47.18a1.32,1.32,0,0,1-.15.62l-1.11,2.19A27.34,27.34,0,0,1,252.08,414Zm-30.26-18.22,1,1.9a24.74,24.74,0,0,0,22.09,13.59h7.21a24.64,24.64,0,0,0,22.08-13.59l1-1.9V348.93a26.65,26.65,0,1,0-53.3,0Z"></path><path class="cls-3" d="M306.57,301.32H269.85a1.38,1.38,0,0,1-1.37-1.37V255.42a1.37,1.37,0,0,1,2.74,0v43.16h35.35a1.37,1.37,0,0,1,0,2.74Z"></path><path class="cls-3" d="M210.85,333.32h-20a1.37,1.37,0,1,1,0-2.73h18.63V256.44a1.37,1.37,0,0,1,2.74,0V332A1.37,1.37,0,0,1,210.85,333.32Z"></path><circle class="cls-5" cx="270.34" cy="282.48" r="5.8"></circle><path class="cls-3" d="M270.34,289.64a7.17,7.17,0,1,1,7.17-7.16A7.17,7.17,0,0,1,270.34,289.64Zm0-11.59a4.43,4.43,0,1,0,4.43,4.43A4.43,4.43,0,0,0,270.34,278.05Z"></path><circle class="cls-5" cx="210.29" cy="316.6" r="5.8"></circle><path class="cls-3" d="M210.29,323.77a7.17,7.17,0,1,1,7.17-7.17A7.17,7.17,0,0,1,210.29,323.77Zm0-11.6a4.43,4.43,0,1,0,4.43,4.43A4.44,4.44,0,0,0,210.29,312.17Z"></path><path class="cls-3" d="M243.74,388.13H221.07a1.37,1.37,0,0,1,0-2.74h21.3V348.93a1.37,1.37,0,0,1,1.37-1.37h32.75a1.37,1.37,0,1,1,0,2.73H245.11v36.47A1.37,1.37,0,0,1,243.74,388.13Z"></path><circle class="cls-5" cx="259.83" cy="348.79" r="5.7"></circle><path class="cls-3" d="M259.83,355.86a7.07,7.07,0,1,1,7.07-7.07A7.07,7.07,0,0,1,259.83,355.86Zm0-11.4a4.33,4.33,0,1,0,4.33,4.33A4.34,4.34,0,0,0,259.83,344.46Z"></path><path class="cls-5" d="M328.9,192.6A48.43,48.43,0,0,1,280.46,241h-51.3a48.43,48.43,0,1,1,0-96.85h51.3a48.32,48.32,0,0,1,21,4.75,48.83,48.83,0,0,1,13.3,9.43A48.28,48.28,0,0,1,328.9,192.6Z"></path><path class="cls-3" d="M280.46,242.4h-51.3a49.8,49.8,0,1,1,0-99.59h51.3a49.8,49.8,0,1,1,0,99.59Zm-51.3-96.85a47.06,47.06,0,1,0,0,94.11h51.3a47.06,47.06,0,1,0,0-94.11Z"></path><ellipse class="cls-9" cx="322.58" cy="191.7" rx="22.82" ry="29.15"></ellipse><ellipse class="cls-3" cx="335.66" cy="191.7" rx="13.34" ry="17.03"></ellipse><ellipse class="cls-5" cx="339.68" cy="191.7" rx="9.32" ry="17.03"></ellipse><path class="cls-3" d="M339.68,210.1c-6,0-10.69-8.08-10.69-18.4s4.69-18.4,10.69-18.4,10.68,8.08,10.68,18.4S345.67,210.1,339.68,210.1Zm0-34.07c-4.31,0-8,7.18-8,15.67s3.65,15.66,8,15.66,7.95-7.17,7.95-15.66S344,176,339.68,176Z"></path><path class="cls-5" d="M325.85,221.08a.66.66,0,0,1-.23,0c-10.47-3.75-20.88-14.48-18.73-33.35,1.55-13.59,9.32-23.87,18.88-25a.69.69,0,0,1,.76.6.67.67,0,0,1-.6.76c-8.79,1-16.22,11-17.68,23.79-1.35,11.85,2.62,26.45,17.83,31.9a.68.68,0,0,1-.23,1.33Z"></path><path class="cls-5" d="M193.27,414h103.2a0,0,0,0,1,0,0v10.75a51.6,51.6,0,0,1-51.6,51.6h0a51.6,51.6,0,0,1-51.6-51.6V414A0,0,0,0,1,193.27,414Z" transform="translate(489.74 890.42) rotate(180)"></path><path class="cls-3" d="M296.47,477.75H193.27a1.37,1.37,0,0,1-1.37-1.37V465.63a53,53,0,0,1,105.94,0v10.75A1.37,1.37,0,0,1,296.47,477.75ZM194.64,475H295.1v-9.38a50.23,50.23,0,0,0-100.46,0Z"></path><path class="cls-3" d="M352,477.75H156a1.37,1.37,0,1,1,0-2.74H352a1.37,1.37,0,0,1,0,2.74Z"></path><path class="cls-3" d="M243.07,476.85a1.37,1.37,0,0,1-1.37-1.37v-26.2a1.37,1.37,0,0,1,1.37-1.37h28.3V421.6a1.37,1.37,0,0,1,2.74,0v27.68a1.37,1.37,0,0,1-1.37,1.37h-28.3v24.83A1.37,1.37,0,0,1,243.07,476.85Z"></path><circle class="cls-5" cx="258.49" cy="449.16" r="5.04"></circle><path class="cls-3" d="M258.49,455.57a6.41,6.41,0,1,1,6.41-6.41A6.41,6.41,0,0,1,258.49,455.57Zm0-10.08a3.68,3.68,0,1,0,3.67,3.67A3.67,3.67,0,0,0,258.49,445.49Z"></path><path class="cls-3" d="M231.84,436.48H204.3a1.37,1.37,0,0,1,0-2.74h26.17V416.92a1.37,1.37,0,1,1,2.73,0v18.19A1.36,1.36,0,0,1,231.84,436.48Z"></path><path class="cls-3" d="M301.42,148.93a23.9,23.9,0,0,1-22.95,17.23H232.88a23.91,23.91,0,0,1-23.14-17.93,48.32,48.32,0,0,1,19.42-4h51.3A48.32,48.32,0,0,1,301.42,148.93Z"></path><path class="cls-3" d="M278.47,167.53H232.88a25.27,25.27,0,0,1-24.47-19,1.36,1.36,0,0,1,.78-1.59,49.54,49.54,0,0,1,20-4.17h51.3A49.47,49.47,0,0,1,302,147.7a1.36,1.36,0,0,1,.72,1.61A25.38,25.38,0,0,1,278.47,167.53ZM211.39,149a22.5,22.5,0,0,0,21.49,15.77h45.59a22.65,22.65,0,0,0,21.28-15.13,46.74,46.74,0,0,0-19.29-4.11h-51.3A46.8,46.8,0,0,0,211.39,149Z"></path><path class="cls-5" d="M245.44,152h-5.17v-3.78h-8.68V152h-5.17v6.34h5.17v3.77h8.68v-3.77h5.17Z"></path><path class="cls-5" d="M288,152h-5.17v-3.78h-8.68V152H269v6.34h5.17v3.77h8.68v-3.77H288Z"></path></g><g id="light"><path class="cls-2" d="M403.26,309.25a22.37,22.37,0,0,1,20.61,20.06,22.35,22.35,0,0,1,20.6-20.06,22.35,22.35,0,0,1-20.6-20.05,22.37,22.37,0,0,1-20.61,20.05Z"></path><path class="cls-2" d="M384.72,327.43a11.95,11.95,0,0,1,11,10.74,12,12,0,0,1,11-10.74,12,12,0,0,1-11-10.74,11.95,11.95,0,0,1-11,10.74Z"></path></g></svg>