<svg width="84" height="84" viewBox="0 0 84 84" fill="none" xmlns="http://www.w3.org/2000/svg">
<g clip-path="url(#clip0_1118_517)">
<path d="M84 42.0072C84.0286 64.9879 65.4034 84 42.0072 84C18.611 84 -0.0143189 64.9736 8.26009e-06 41.9785C0.0143354 18.9835 18.611 0 42.0215 0C65.432 0 84.043 19.0408 84 42.0072Z" fill="#FE9B00"/>
<path d="M74.286 47.2222C74.2144 47.079 74.2717 46.9644 74.2717 46.8497C74.5153 44.3568 72.925 42.1504 70.518 41.6347C68.942 41.3051 67.538 41.7493 66.3345 42.7808C64.8731 44.0273 63.4834 45.3597 62.108 46.7065C60.4317 48.3541 58.7889 50.0304 57.1794 51.7353C56.0476 52.9388 54.7295 53.87 53.1535 54.4145C48.7121 55.9331 43.8552 53.5548 42.1646 49.4286C41.964 48.9272 41.9784 48.8269 42.3795 48.483C43.3108 47.6664 44.2564 46.8641 45.1876 46.0474C45.2163 46.0188 45.2449 46.0044 45.2736 45.9758C45.3882 45.9041 45.4742 45.7322 45.6175 45.8039C45.7607 45.8755 45.6748 46.0331 45.6891 46.1477C45.7456 47.2554 46.1875 48.3085 46.9384 49.1248C47.6893 49.941 48.7019 50.4692 49.801 50.6178C52.079 50.933 54.357 49.5432 55.0447 47.3655C55.8614 44.7866 54.5003 42.2221 51.8641 41.3768C50.2594 40.861 48.7981 41.2048 47.523 42.2651C46.4771 43.1247 45.4742 44.0273 44.457 44.9299C43.7836 45.5316 43.1102 46.1477 42.4225 46.7351C42.1601 46.9604 41.9831 47.2689 41.9211 47.6091C41.3766 50.3742 39.8293 52.4373 37.3794 53.7984C35.8451 54.654 34.0822 55.0095 32.3362 54.8156C30.4374 54.6532 28.6426 53.879 27.2214 52.6092C26.2166 51.7279 25.4317 50.6241 24.9291 49.3856C24.899 49.3261 24.875 49.2637 24.8574 49.1994C24.807 49.0946 24.7952 48.9753 24.824 48.8626C24.8529 48.75 24.9205 48.6511 25.015 48.5833C25.3446 48.3111 25.6598 48.0389 25.9893 47.7667C26.6627 47.1793 27.336 46.5918 28.0237 46.0188C28.1384 45.9185 28.253 45.7465 28.3962 45.8039C28.5395 45.8612 28.4822 46.0617 28.4965 46.205C28.5297 47.2863 28.9225 48.3256 29.6127 49.1586C30.303 49.9916 31.2513 50.5706 32.3076 50.804C33.5019 51.0585 34.7484 50.8472 35.7923 50.2135C36.8361 49.5797 37.5986 48.5712 37.9238 47.3942C38.7834 44.2279 36.2762 41.1046 33.0096 41.2622C32.0141 41.2916 31.0586 41.6606 30.3018 42.308C29.3705 43.0817 28.4536 43.884 27.5509 44.6863C26.6197 45.503 25.7027 46.334 24.7715 47.1506C24.6466 47.2525 24.5468 47.3817 24.4797 47.5283C24.4127 47.6748 24.3801 47.8348 24.3847 47.9959V54.2139C24.3847 54.8013 24.2987 54.8873 23.7113 54.8729C23.1593 54.8727 22.6137 54.7536 22.1119 54.5237C21.61 54.2937 21.1636 53.9584 20.8029 53.5405C20.5163 53.211 20.459 53.211 20.0722 53.4259C18.6538 54.2139 17.1495 54.6437 15.5305 54.5864C12.2066 54.4718 9.67069 52.9674 7.95144 50.1163C7.14204 48.7726 6.72513 47.2291 6.74796 45.6606C6.74951 43.6016 7.47469 41.6086 8.79674 40.03C10.1435 38.3824 11.8627 37.3079 13.9688 36.964C16.7769 36.5199 19.3558 37.0356 21.5192 38.9985C22.2066 39.6251 22.8044 40.3434 23.2958 41.1332C23.3662 41.2919 23.4871 41.4228 23.6396 41.5057C23.7447 41.4384 23.8304 41.3449 23.8882 41.2343C23.946 41.1237 23.9739 41 23.9692 40.8753C23.9548 39.4569 23.9692 38.0385 23.9692 36.6058C23.9692 33.3822 23.9644 30.1634 23.9548 26.9493C23.9548 26.3189 24.0265 26.2473 24.6712 26.2473C25.6219 26.2485 26.5389 26.5997 27.2471 27.2339C27.9554 27.8682 28.4052 28.741 28.5109 29.6858C28.5394 29.9139 28.5538 30.1436 28.5538 30.3735V37.8953C28.5682 38.2391 28.6398 38.2821 28.955 38.1245C29.8761 37.6367 30.8746 37.3119 31.9064 37.1646C34.471 36.8064 36.7633 37.4511 38.7977 39.0558C39.4787 39.6031 40.0729 40.2504 40.56 40.9756C40.5885 41.0266 40.6221 41.0746 40.6603 41.1189C40.7606 41.2622 40.8465 41.4198 41.0328 41.4484C41.1331 41.4627 41.4196 41.0902 41.4339 40.9326C41.4581 40.7378 41.4677 40.5415 41.4626 40.3452V30.2732C41.4626 28.1958 42.752 26.6341 44.8008 26.2473C45.0261 26.1944 45.2572 26.1704 45.4885 26.1757C45.7894 26.19 45.9183 26.3046 45.99 26.5912C46.0375 26.8171 46.0567 27.0481 46.0473 27.2789V37.8666C46.0759 38.0529 46.1332 38.1102 46.3195 38.0385C46.563 37.9383 46.8066 37.8236 47.0502 37.7234C50.4887 36.3479 54.3427 37.1789 56.8356 39.8438C57.6723 40.7449 58.3245 41.8011 58.7554 42.9528L58.8414 43.2106C58.9847 43.5831 59.0276 43.5975 59.3285 43.3253L63.3688 39.7578C64.5012 38.7254 65.8762 37.996 67.366 37.6374C69.4569 37.1478 71.6542 37.427 73.5562 38.424C75.4581 39.421 76.9378 41.0692 77.7245 43.0674C77.8069 43.2308 77.8319 43.4171 77.7955 43.5964C77.7591 43.7757 77.6635 43.9376 77.524 44.0559C76.5354 45.0302 75.5755 46.0188 74.5869 47.0073C74.5027 47.0992 74.4002 47.1724 74.286 47.2222Z" fill="#191C31"/>
<path d="M70.4037 51.1049C70.4002 51.1593 70.3841 51.2122 70.3568 51.2595C70.3294 51.3067 70.2916 51.3469 70.2461 51.3771C69.2002 52.423 68.1543 53.4688 67.1228 54.529C67.0386 54.6278 66.9247 54.6966 66.7981 54.725C66.6715 54.7534 66.539 54.74 66.4207 54.6866C63.9565 53.7697 62.2134 52.103 61.1914 49.6865C61.0338 49.3283 61.0624 49.2137 61.349 48.9701C62.3662 48.0819 63.3977 47.1936 64.4149 46.3196C64.4792 46.2476 64.5644 46.1976 64.6585 46.1764C64.7588 46.2767 64.7301 46.4056 64.7445 46.5202C64.7959 47.1941 64.9657 47.8537 65.2459 48.4687C65.9193 49.8727 67.0655 50.6751 68.5412 51.0332C68.8558 51.105 69.1787 51.1339 69.5011 51.1192C69.7876 51.0905 70.0885 51.1049 70.4037 51.1049Z" fill="#191C31"/>
<path d="M20.4735 45.7752C20.5452 48.3254 18.3674 50.5461 15.7169 50.5748C14.4506 50.5813 13.2332 50.086 12.3311 49.1973C11.429 48.3086 10.9155 47.0988 10.903 45.8325C10.86 43.225 12.9088 40.9899 15.7169 40.9326C18.3101 40.8753 20.4878 42.9957 20.4735 45.7752Z" fill="#FF9C00"/>
</g>
<defs>
<clipPath id="clip0_1118_517">
<rect width="84" height="84" fill="white"/>
</clipPath>
</defs>
</svg>
