<svg width="84" height="84" viewBox="0 0 84 84" fill="none" xmlns="http://www.w3.org/2000/svg">
<path d="M42 84C65.196 84 84 65.196 84 42C84 18.804 65.196 0 42 0C18.804 0 0 18.804 0 42C0 65.196 18.804 84 42 84Z" fill="black"/>
<path d="M72.8256 35.5398C72.4104 33.5232 71.7966 31.5527 70.9933 29.6571C70.2016 27.79 69.2329 26.003 68.1006 24.3205C66.9777 22.6583 65.6969 21.1085 64.2759 19.6926C62.8593 18.2715 61.3085 16.9907 59.6454 15.868C57.9605 14.7413 56.1749 13.7729 54.3114 12.9752C50.4578 11.3408 46.3147 10.4985 42.1288 10.4985C37.9429 10.4985 33.7998 11.3408 29.9462 12.9752C26.2199 14.547 22.8353 16.8295 19.9817 19.6952C18.5609 21.1103 17.2801 22.6592 16.1571 24.3205C15.0302 26.0063 14.0618 27.7928 13.2643 29.6571C11.6299 33.5108 10.7876 37.6539 10.7876 41.8398C10.7876 46.0257 11.6299 50.1688 13.2643 54.0224C14.0361 55.8861 15.0336 57.6528 16.1571 59.3564C17.28 61.0193 18.5608 62.57 19.9817 63.9869C21.3984 65.408 22.9491 66.6888 24.6122 67.8115C26.2817 68.935 28.0824 69.901 29.9462 70.7043C33.7998 72.3387 37.9429 73.181 42.1288 73.181C46.3147 73.181 50.4578 72.3387 54.3114 70.7043C56.1752 69.9325 57.9418 68.935 59.6454 67.8115C61.3085 66.6888 62.8593 65.408 64.2759 63.9869C65.697 62.5702 66.9778 61.0195 68.1006 59.3564C69.2241 57.6869 70.1901 55.8861 70.9933 54.0224C73.4661 48.1904 74.1052 41.7438 72.8256 35.5398ZM42.1577 69.2579C27.0193 69.2579 14.7737 56.9781 14.7737 41.8713C14.7737 26.7644 27.0534 14.4846 42.1577 14.4846C57.2646 14.4846 69.5443 26.7644 69.5443 41.8713C69.5443 56.9781 57.2672 69.2579 42.1577 69.2579Z" fill="white"/>
<path d="M42.6431 66.8797H43.3834C43.512 66.8797 43.638 66.8797 43.7666 66.8455H43.8007C43.9294 66.8455 44.0239 66.8455 44.1525 66.814H44.2496C44.3467 66.814 44.4439 66.814 44.5384 66.7825H44.6355C44.7326 66.7825 44.8297 66.751 44.9584 66.751H45.0214C45.15 66.751 45.2786 66.7169 45.4072 66.7169C45.5359 66.7169 45.633 66.6854 45.7616 66.6539H45.8246C45.9217 66.6539 46.0189 66.6224 46.1134 66.6224H46.179C46.3076 66.5883 46.4047 66.5883 46.5334 66.5568C46.788 66.5253 47.0452 66.4597 47.271 66.3967H47.3366C47.4311 66.3652 47.5597 66.3652 47.6569 66.331H47.6884C47.9456 66.268 48.1714 66.2024 48.4286 66.1394C46.021 66.2158 43.6134 65.9891 41.2624 65.4648C37.7239 64.693 34.3507 63.3123 31.4895 60.9314C29.2338 59.0542 27.4235 56.6991 26.1896 54.0365C24.9557 51.3739 24.3289 48.4703 24.3547 45.5358C24.3779 41.1579 25.9357 36.9267 28.7569 33.5789C32.4214 29.2398 37.6294 26.9561 42.9634 26.8275H43.7036V22.554H42.8689C41.2461 22.5837 39.6306 22.7772 38.0467 23.1315C36.4529 23.4919 34.9017 24.0198 33.4189 24.7065C31.9069 25.4152 30.492 26.2815 29.1742 27.279C27.8125 28.3141 26.5726 29.5003 25.4782 30.8148C24.4478 32.0314 23.5535 33.3571 22.8112 34.7681C22.0769 36.1283 21.484 37.5603 21.042 39.0416C20.6084 40.4999 20.3182 41.9972 20.1757 43.5119L20.0786 44.9242V45.7589C20.1101 47.3996 20.3044 49.0061 20.6561 50.5811C21.0105 52.1902 21.5565 53.7311 22.2311 55.2116C23.037 56.9782 24.4834 59.5822 26.6359 61.543C31.0309 65.0078 36.4665 66.8881 42.063 66.8797H42.6431Z" fill="white"/>
<path d="M49.6495 62.7635C48.0641 62.7069 46.485 62.535 44.9245 62.249C38.3043 61.0599 32.6133 57.0095 30.5264 50.9038C27.9854 43.4777 31.8757 35.4425 39.2677 33.0013C40.6764 32.5292 42.1526 32.2898 43.6383 32.2925C45.5362 32.2925 47.4314 32.6784 49.1692 33.3845L50.9673 29.5599C50.4265 29.3431 49.8803 29.14 49.3293 28.9509C47.4877 28.3729 45.5685 28.0799 43.6383 28.082C41.7045 28.0857 39.7838 28.4003 37.9499 29.0139C35.6094 29.7859 33.4537 31.0335 31.6184 32.6784C30.7333 33.4669 29.9263 34.3389 29.2087 35.2824C28.4993 36.2151 27.8854 37.2168 27.3764 38.2723C26.3399 40.3944 25.7282 42.6986 25.5757 45.0553C25.4155 47.4965 25.7358 49.9378 26.539 52.253C27.3575 54.6347 28.6728 56.8153 30.3978 58.6502C31.9728 60.3538 33.805 61.64 36.0205 62.8292C38.3358 64.0498 41.197 64.6929 44.1843 65.1129C46.1137 65.3675 48.6862 65.4332 50.1955 65.4332C51.5133 64.9502 52.0593 64.7244 52.768 64.4357C53.3797 64.1469 53.9887 63.8582 54.6003 63.5038C55.2119 63.1494 55.309 63.0838 56.3354 62.4118C56.4268 62.3549 56.5129 62.2899 56.5927 62.2175C53.0568 62.8292 52.1564 62.795 49.6495 62.7635Z" fill="white"/>
<path d="M57.5584 57.9757C56.5609 58.0387 55.146 58.1332 53.5395 58.1332C50.6783 58.1332 47.1739 57.8786 44.1867 56.8811C39.5562 55.3402 35.1855 51.387 35.1855 46.4992C35.1845 45.3424 35.4116 44.1967 35.8538 43.1277C36.296 42.0588 36.9447 41.0875 37.7627 40.2695C38.5807 39.4515 39.552 38.8028 40.6209 38.3606C41.6899 37.9184 42.8356 37.6913 43.9924 37.6923C47.3025 37.6923 50.1638 39.5246 51.6758 42.1916L55.5004 40.2963C54.9007 39.1673 54.1304 38.1376 53.2167 37.2435C52.0059 36.0306 50.5679 35.0684 48.9848 34.4119C47.4018 33.7554 45.7049 33.4175 43.9911 33.4175C42.2773 33.4175 40.5804 33.7554 38.9974 34.4119C37.4144 35.0684 35.9763 36.0306 34.7655 37.2435C33.5531 38.4542 32.5912 39.8921 31.935 41.4749C31.2787 43.0576 30.9409 44.7543 30.9409 46.4677C30.9495 48.2635 31.334 50.0375 32.0697 51.6757C32.7417 53.1536 33.6762 54.537 34.8653 55.8232C36.9548 58.0702 39.8134 59.871 42.8689 60.9C45.7932 61.8633 50.1008 62.2177 54.2798 61.929C55.4348 61.8318 56.3037 61.7347 57.7815 61.4145C59.2077 60.289 60.5022 59.006 61.6403 57.5898C60.6428 57.687 58.8105 57.8786 57.5584 57.9757Z" fill="white"/>
</svg>
