<svg width="84" height="84" viewBox="0 0 84 84" fill="none" xmlns="http://www.w3.org/2000/svg">
<path fill-rule="evenodd" clip-rule="evenodd" d="M42 0C65.1924 0 84 18.8076 84 42C84 65.1924 65.1924 84 42 84C18.8076 84 0 65.1924 0 42C0 18.8076 18.8076 0 42 0Z" fill="#211F6D"/>
<path fill-rule="evenodd" clip-rule="evenodd" d="M27.6359 21.7561H55.6078C59.3206 21.7561 62.3278 24.7633 62.3278 28.4761V56.4481C62.3278 59.6989 59.6987 62.3281 56.4478 62.3281H27.6359C24.3851 62.3281 21.7559 59.6989 21.7559 56.4481V27.6361C21.7559 24.3853 24.3851 21.7561 27.6359 21.7561Z" fill="white"/>
<path d="M32.4494 38.7071C29.8874 38.7071 27.8042 36.6239 27.8042 34.0535C27.8042 31.4831 29.8874 29.3999 32.4494 29.3999C35.0114 29.3999 37.0946 31.4831 37.0946 34.0535C37.0946 36.6239 35.0114 38.7071 32.4494 38.7071Z" fill="#211F6D"/>
<path d="M51.551 38.7071C48.989 38.7071 46.9058 36.6239 46.9058 34.0535C46.9058 31.4831 48.989 29.3999 51.551 29.3999C54.113 29.3999 56.1962 31.4831 56.1962 34.0535C56.1962 36.6239 54.113 38.7071 51.551 38.7071Z" fill="#211F6D"/>
<path d="M32.4494 54.5999C29.8874 54.5999 27.8042 52.5167 27.8042 49.9463C27.8042 47.3759 29.8874 45.2927 32.4494 45.2927C35.0114 45.2927 37.0946 47.3759 37.0946 49.9463C37.0946 52.5167 35.0114 54.5999 32.4494 54.5999Z" fill="#211F6D"/>
<path d="M51.551 54.5999C48.989 54.5999 46.9058 52.5167 46.9058 49.9463C46.9058 47.3759 48.989 45.2927 51.551 45.2927C54.113 45.2927 56.1962 47.3759 56.1962 49.9463C56.1962 52.5167 54.113 54.5999 51.551 54.5999Z" fill="#211F6D"/>
</svg>
