<svg width="84" height="84" viewBox="0 0 84 84" fill="none" xmlns="http://www.w3.org/2000/svg">
<circle cx="42" cy="42" r="42" fill="#2A2F33"/>
<path fill-rule="evenodd" clip-rule="evenodd" d="M59.597 56.0873L59.5829 56.1032C57.4258 58.5464 55.0155 59.7983 53.3736 60.4184C48.7898 62.1491 44.1609 62.0791 39.616 60.2103C34.9828 58.3055 30.8372 54.3611 28.7967 49.9162C27.8875 47.9364 27.3999 45.853 27.3473 43.724C27.3362 43.2826 27.3202 42.7712 27.3173 42.6746L27.3161 42.5807L27.3155 42.538L27.3153 42.5253L27.3147 42.48C27.3141 42.4391 27.3136 42.3982 27.3136 42.3571L27.3134 42.3411C27.3136 42.2296 27.3151 42.1187 27.3176 42.0082C27.3878 38.9614 28.5875 36.0366 30.6955 33.7723C31.6417 32.7561 32.7503 31.9639 33.99 31.4179C35.2289 30.8724 36.5876 30.5806 38.0321 30.5489C37.5349 30.9465 37.0639 31.3833 36.6216 31.8585C34.0923 34.575 32.6995 38.3073 32.6995 42.3679C32.6995 46.4282 34.0923 50.1605 36.6216 52.877C38.0768 54.4403 39.818 55.5818 41.7963 56.2694C43.2011 56.7578 44.7139 57.0052 46.2926 57.0052C48.9438 57.0052 52.7651 56.2912 55.9159 52.889C56.99 51.7297 57.8574 50.3872 58.5038 48.8893H63.6955C62.8379 51.5998 61.4393 54.0623 59.597 56.0873ZM25.0458 56.0822C21.6826 52.5114 19.8304 47.6342 19.8304 42.3495C19.8304 37.0501 21.6879 32.1365 25.0608 28.514C28.4711 24.8509 33.1715 22.8339 38.2963 22.8339C39.5737 22.8339 40.8384 22.9586 42.0551 23.2053H42.0553C48.5388 24.5192 53.6358 29.285 55.7 35.8279H50.5084C49.8618 34.3299 48.9938 32.988 47.9198 31.8282C46.4789 30.2725 44.7518 29.1356 42.7867 28.4495C41.3852 27.9599 39.8744 27.712 38.2963 27.712C36.3579 27.712 34.5257 28.0861 32.8502 28.824C31.2565 29.526 29.8347 30.5407 28.6251 31.8401C28.326 32.1615 28.0427 32.494 27.7739 32.836C26.0669 34.7207 24.9759 37.2023 24.617 40.2931C24.5443 40.8382 24.5008 41.3887 24.4879 41.9428L24.4975 41.943L24.4879 41.9428C24.4847 42.078 24.483 42.2134 24.483 42.3495L24.4832 42.3679H24.483C24.483 42.4121 24.4835 42.4563 24.4843 42.5003V42.5073C24.4845 42.5112 24.4845 42.5147 24.4845 42.5186L24.4849 42.5535L24.4851 42.5683L24.4853 42.5738V42.5771L24.4859 42.6258C24.4859 42.9662 24.4959 43.3065 24.5138 43.6466C24.5152 43.6963 24.5166 43.7456 24.5177 43.794C24.5799 46.3101 25.1542 48.7681 26.2248 51.0999C28.1554 55.3052 31.732 59.1138 35.9024 61.5271C31.7017 61.011 27.9097 59.1228 25.0458 56.0822ZM57.989 26.9638C60.7431 29.2707 62.6537 32.3108 63.5761 35.828H58.6505C57.1465 30.3427 53.8082 25.8597 49.3307 23.0836C52.5752 23.5858 55.5272 24.9017 57.989 26.9638ZM47.9198 52.8708C48.9939 51.7112 49.8618 50.3691 50.5085 48.8711H55.3595C54.9307 49.6339 54.4234 50.3333 53.8404 50.9623C51.4758 53.5157 48.6043 54.1268 46.5312 54.1689C47.0186 53.7754 47.4824 53.343 47.9198 52.8708ZM66.9862 46.0373H59.2961H48.5465L48.2117 46.9793C47.6725 48.4963 46.8761 49.8302 45.8444 50.944C44.8196 52.0502 43.617 52.8805 42.2646 53.4185C40.915 52.8734 39.7148 52.0436 38.6919 50.945C36.653 48.755 35.5299 45.709 35.5299 42.368C35.5299 39.027 36.653 35.981 38.6919 33.7908C39.638 32.7748 40.7464 31.9825 41.9864 31.4364C42.0932 31.3893 42.204 31.3443 42.3149 31.3003C43.65 31.8426 44.8356 32.6662 45.8444 33.7551C46.8761 34.8693 47.6725 36.2032 48.2117 37.7199L48.5465 38.6619H57.5346H57.5453H59.3129H67C67 33.0948 63.4532 27.8459 59.8052 24.7902C56.078 21.6685 51.4056 20.0184 46.2925 20.0184C44.9622 20.0184 43.6342 20.1396 42.3401 20.3757C41.0246 20.1275 39.6659 20 38.2963 20C32.3779 20 26.9421 22.3374 22.9903 26.582C19.1276 30.7308 17 36.3305 17 42.3496C17 48.3601 19.1262 53.9276 22.9866 58.0263C26.9215 62.2044 32.3519 64.5054 38.2774 64.5054C39.6259 64.5054 41.6138 64.5048 43.1024 64.1778C44.314 64.3965 45.5283 64.5064 46.744 64.5064C49.2875 64.5064 51.8357 64.0276 54.3722 63.07C56.3105 62.3382 59.1517 60.8638 61.6894 57.9958C61.6903 57.9948 61.6911 57.9938 61.6921 57.9929C61.6958 57.9886 61.6997 57.9843 61.7034 57.9801V57.9799C64.2532 55.1713 66.6941 51.0467 66.9862 46.0373Z" fill="url(#paint0_linear_1608_148)"/>
<defs>
<linearGradient id="paint0_linear_1608_148" x1="81.7279" y1="45.7189" x2="49.5689" y2="0.823202" gradientUnits="userSpaceOnUse">
<stop stop-color="#B9775D"/>
<stop offset="0.218935" stop-color="#E89077"/>
<stop offset="0.739443" stop-color="#FDBDA4"/>
<stop offset="1" stop-color="#B57359"/>
</linearGradient>
</defs>
</svg>
