<svg width="84" height="84" viewBox="0 0 84 84" fill="none" xmlns="http://www.w3.org/2000/svg">
<circle cx="42" cy="42" r="42" fill="white"/>
<path d="M41.5884 17L20 29.528V54.472L41.5884 67L63.1767 54.472V29.528L41.5884 17ZM56.8009 50.7808L41.5884 59.5056L26.3758 50.7808V33.2192L41.5884 24.3825L56.8009 33.2192V50.7808Z" fill="#002D74"/>
<g style="mix-blend-mode:multiply">
<path style="mix-blend-mode:multiply" d="M41.5884 24.3825V17L20 29.528V54.472L41.5884 67V59.5056L26.3758 50.7808V33.2192L41.5884 24.3825Z" fill="url(#paint0_linear_1621_294)"/>
</g>
<g style="mix-blend-mode:multiply">
<path style="mix-blend-mode:multiply" d="M41.5894 59.5056V66.8881L63.1777 54.3602V29.528L41.5894 17V24.3825L56.8019 33.1074V50.6689L41.5894 59.5056Z" fill="url(#paint1_linear_1621_294)"/>
</g>
<path d="M51.7681 47.759L41.5891 53.5755L31.522 47.759V36.1259L41.5891 30.3093L51.7681 36.1259V47.759Z" fill="#002D74"/>
<defs>
<linearGradient id="paint0_linear_1621_294" x1="30.8098" y1="66.9352" x2="30.8098" y2="17" gradientUnits="userSpaceOnUse">
<stop stop-color="#002D74" stop-opacity="0"/>
<stop offset="1" stop-color="#002D74"/>
</linearGradient>
<linearGradient id="paint1_linear_1621_294" x1="52.4306" y1="66.9352" x2="52.4306" y2="17" gradientUnits="userSpaceOnUse">
<stop stop-color="#002D74"/>
<stop offset="1" stop-color="#002D74" stop-opacity="0"/>
</linearGradient>
</defs>
</svg>
