<svg width="84" height="84" viewBox="0 0 84 84" fill="none" xmlns="http://www.w3.org/2000/svg">
<circle cx="42" cy="42" r="42" fill="#2E3148"/>
<path fill-rule="evenodd" clip-rule="evenodd" d="M46.9095 33.7854L33.9709 46.7067C33.8042 46.3834 33.6536 46.0466 33.5187 45.6971C33.0669 44.5231 32.8409 43.2774 32.8409 41.9619C32.8409 40.6453 33.0669 39.4002 33.5187 38.2261C33.9709 37.0516 34.5976 36.0327 35.3987 35.1678C36.2 34.3034 37.1628 33.6198 38.2866 33.1163C39.4111 32.6134 40.6448 32.3617 41.9884 32.3617C43.3325 32.3617 44.5729 32.6197 45.7093 33.1362C46.132 33.3278 46.532 33.5441 46.9095 33.7854ZM45.7679 50.8842C44.6435 51.3875 43.4098 51.6389 42.0662 51.6389C40.7222 51.6389 39.4818 51.3808 38.3447 50.8649C37.9226 50.6726 37.5226 50.4564 37.1456 50.2146L50.0835 37.2944C50.2505 37.6172 50.4011 37.9535 50.536 38.3034C50.9878 39.4775 51.2138 40.7231 51.2138 42.0391C51.2138 43.3552 50.9878 44.6002 50.536 45.7749C50.0835 46.9489 49.4571 47.9679 48.6557 48.8321C47.8546 49.6966 46.8922 50.3808 45.7679 50.8842ZM47.7255 54.8905C49.457 54.1421 50.9559 53.1294 52.2221 51.8514C53.4881 50.5744 54.4697 49.0839 55.1674 47.3808C55.8656 45.6778 56.2144 43.8713 56.2144 41.9619C56.2144 40.052 55.8656 38.2455 55.1674 36.5419C54.7539 35.5318 54.2444 34.599 53.6398 33.743L62.0551 25.3393L58.7113 22L50.2704 30.4293C49.5126 29.9133 48.6898 29.4673 47.8028 29.0908C46.0713 28.3554 44.1591 27.9872 42.0662 27.9872C39.9727 27.9872 38.0608 28.3617 36.3292 29.1101C34.5976 29.8585 33.0986 30.8711 31.8326 32.1486C30.5663 33.426 29.5843 34.9166 28.8866 36.6197C28.1889 38.3228 27.84 40.1293 27.84 42.0392C27.84 43.9486 28.1889 45.7545 28.8866 47.4581C29.3008 48.4686 29.8101 49.4015 30.4146 50.2579L22 58.6608L25.3438 62L33.7843 53.5711C34.5421 54.0872 35.3648 54.5333 36.2518 54.9097C37.9834 55.645 39.8953 56.0129 41.9884 56.0129C44.0817 56.0129 45.9939 55.6383 47.7255 54.8905Z" fill="white"/>
</svg>
