<svg width="84" height="84" viewBox="0 0 84 84" fill="none" xmlns="http://www.w3.org/2000/svg">
<circle cx="42" cy="42" r="42" fill="black"/>
<path fill-rule="evenodd" clip-rule="evenodd" d="M24.2632 56.0826C23.0074 55.314 22.2388 53.949 22.2388 52.479V44.2722C22.2388 43.2978 23.0326 42.5082 24.007 42.5124C24.3178 42.5124 24.6244 42.5964 24.8932 42.7518L43.411 53.55C44.4946 54.18 45.1624 55.3392 45.1624 56.595V65.0958C45.1666 66.2634 44.2216 67.2126 43.054 67.2126C42.6634 67.2126 42.277 67.1034 41.9452 66.9018L24.2632 56.0826ZM51.8656 40.5048C52.9492 41.1348 53.6128 42.2982 53.617 43.5498V60.8034C53.617 61.3116 53.344 61.782 52.8988 62.0298L48.8458 64.3104C48.7954 64.3398 48.7408 64.3608 48.682 64.3776V54.7974C48.682 53.5584 48.031 52.4076 46.9642 51.7692L30.7018 42.042V31.227C30.7018 30.2526 31.4956 29.463 32.47 29.4672C32.7808 29.4672 33.0874 29.5512 33.3562 29.7066L51.8656 40.5048ZM59.9716 27.762C61.0594 28.392 61.7272 29.5554 61.7272 30.8112V56.0112C61.723 56.5278 61.4374 57.0024 60.9838 57.2502L57.1408 59.325V41.7816C57.1408 40.5426 56.4898 39.396 55.4314 38.7576L38.8078 28.7868V18.5304C38.8078 18.2196 38.8918 17.913 39.043 17.6442C39.5344 16.8042 40.6138 16.5186 41.4538 17.0058L59.9716 27.762Z" fill="#00D395"/>
</svg>
