<svg width="84" height="84" viewBox="0 0 84 84" fill="none" xmlns="http://www.w3.org/2000/svg">
<circle cx="42" cy="42" r="42" fill="#203064"/>
<path d="M48.7301 36.3093L46.6745 41.8961L47.2731 48.137L42.4611 48.16H37.6945L38.3384 41.8961L36.2373 36.3093H48.7301Z" fill="white"/>
<path d="M54.4577 38.179L48.7989 41.9188V48.5612L44.4839 52.7714V54.756L48.652 58.6451H52.131L60.9076 43.1119L54.4577 38.179Z" fill="white"/>
<path d="M32.7815 24.8025H52.0854L54.4124 34.8062H30.5337L32.7815 24.8025Z" fill="white"/>
<path d="M36.2143 41.9188L30.4874 38.2249L24.0151 43.1119L32.837 58.691H36.3612L40.5291 54.756V52.7714L36.2143 48.5612V41.9188Z" fill="white"/>
<path fill-rule="evenodd" clip-rule="evenodd" d="M16.8882 26.4545L42.4948 11.4719L68.0002 26.5003V56.4998L42.382 71.5283L16.8203 56.4885V26.4545H16.8882ZM42.4948 14.535L19.4408 28.0261V55.0085L42.4948 68.4998L65.4473 55.0085V28.0261L42.4948 14.535Z" fill="white"/>
</svg>
