<svg width="84" height="84" viewBox="0 0 84 84" fill="none" xmlns="http://www.w3.org/2000/svg">
<rect width="84" height="84" rx="42" fill="#0D022B"/>
<g clip-path="url(#clip0_1308_192)">
<path fill-rule="evenodd" clip-rule="evenodd" d="M27.5474 27.5249C27.7354 27.3374 27.8481 27.15 27.8481 26.8875C27.8481 26.625 27.7354 26.4375 27.5474 26.25C27.1716 25.9125 26.5701 25.9125 26.1567 26.25C25.9687 26.4375 25.856 26.625 25.856 26.8875C25.856 27.15 25.9687 27.3374 26.1567 27.5249C26.3446 27.6749 26.6077 27.7874 26.8333 27.7874C27.0964 27.8249 27.3595 27.7499 27.5474 27.5249Z" fill="white"/>
<path fill-rule="evenodd" clip-rule="evenodd" d="M29.9532 30.1126C30.1035 29.9251 30.2163 29.7376 30.2163 29.4751C30.2163 29.2126 30.1035 29.0251 29.9532 28.8376C29.6149 28.5001 29.0135 28.5001 28.6752 28.8376C28.5248 29.0251 28.4121 29.2126 28.4121 29.4751C28.4121 29.7376 28.5248 29.9251 28.6752 30.1126C28.8631 30.2626 29.0511 30.3751 29.3142 30.3751C29.5773 30.3751 29.7652 30.2626 29.9532 30.1126Z" fill="white"/>
<path fill-rule="evenodd" clip-rule="evenodd" d="M32.584 32.5875C32.7344 32.4375 32.8472 32.2125 32.8472 31.95C32.8472 31.6875 32.7344 31.5 32.584 31.3125C32.2458 30.975 31.6443 30.975 31.3061 31.3125C31.1557 31.4625 31.0429 31.6875 31.0429 31.95C31.0429 32.2125 31.1557 32.4 31.3061 32.5875C31.494 32.775 31.6819 32.8499 31.9451 32.8499C32.2082 32.8499 32.4337 32.7375 32.584 32.5875Z" fill="white"/>
<path fill-rule="evenodd" clip-rule="evenodd" d="M35.1026 35.0999C35.2906 34.9499 35.4033 34.7249 35.4033 34.4624C35.4033 34.1999 35.2906 34.0124 35.1026 33.8249C34.7267 33.4874 34.1253 33.4874 33.7119 33.8249C33.5239 33.9749 33.4112 34.1999 33.4112 34.4624C33.4112 34.7249 33.5239 34.9499 33.7119 35.0999C33.8998 35.2874 34.1629 35.3624 34.3884 35.3624C34.6516 35.3624 34.8771 35.3249 35.1026 35.0999Z" fill="white"/>
<path fill-rule="evenodd" clip-rule="evenodd" d="M37.5084 37.6126C37.6963 37.4626 37.7715 37.2376 37.7715 36.9751C37.7715 36.7126 37.6587 36.5251 37.5084 36.3376C37.1701 36.0001 36.5687 36.0001 36.2304 36.3376C36.0424 36.4876 35.9673 36.7126 35.9673 36.9751C35.9673 37.2376 36.08 37.4626 36.2304 37.6126C36.3807 37.8001 36.6063 37.8751 36.8694 37.8751C37.0949 37.9126 37.358 37.8376 37.5084 37.6126Z" fill="white"/>
<path fill-rule="evenodd" clip-rule="evenodd" d="M40.4023 39.4876C40.4023 39.225 40.2896 39.0375 40.1392 38.85C39.8009 38.5125 39.1995 38.5125 38.8612 38.85C38.6733 39.0375 38.5981 39.225 38.5981 39.4876C38.5981 39.7501 38.7109 39.9376 38.8612 40.1251C39.0116 40.2751 39.2371 40.3876 39.5002 40.3876C39.7633 40.3876 39.9513 40.2751 40.1392 40.1251C40.3272 39.9751 40.4023 39.7501 40.4023 39.4876Z" fill="white"/>
<path fill-rule="evenodd" clip-rule="evenodd" d="M45.1011 45.0374C45.2515 44.8874 45.3643 44.6624 45.3643 44.3999C45.3643 44.1374 45.2515 43.9499 45.1011 43.7624C44.7628 43.4249 44.1614 43.4249 43.8231 43.7624C43.6352 43.9499 43.56 44.1374 43.56 44.3999C43.56 44.6624 43.6728 44.8499 43.8231 45.0374C43.9735 45.2249 44.199 45.2999 44.4621 45.2999C44.6877 45.3374 44.9132 45.2624 45.1011 45.0374Z" fill="white"/>
<path fill-rule="evenodd" clip-rule="evenodd" d="M47.6944 47.5501C47.8824 47.4001 47.9951 47.1751 47.9951 46.9126C47.9951 46.6501 47.8824 46.4626 47.6944 46.2751C47.3185 45.9376 46.7171 45.9376 46.3036 46.2751C46.1157 46.4626 46.0029 46.6501 46.0029 46.9126C46.0029 47.1751 46.1157 47.3626 46.3036 47.5501C46.4916 47.7376 46.7547 47.8126 46.9802 47.8126C47.2809 47.8501 47.5065 47.7376 47.6944 47.5501Z" fill="white"/>
<path fill-rule="evenodd" clip-rule="evenodd" d="M50.1378 50.0999C50.2881 49.9499 50.4009 49.7249 50.4009 49.4624C50.4009 49.1999 50.2881 48.9749 50.1378 48.8249C49.7995 48.4874 49.1981 48.4874 48.8598 48.8249C48.7094 48.9749 48.5967 49.1999 48.5967 49.4624C48.5967 49.7249 48.7094 49.9124 48.8598 50.0999C49.0477 50.2874 49.2356 50.3624 49.4988 50.3624C49.7619 50.3624 49.9122 50.2499 50.1378 50.0999Z" fill="white"/>
<path fill-rule="evenodd" clip-rule="evenodd" d="M52.6563 52.6126C52.8443 52.4626 52.9194 52.2376 52.9194 51.9751C52.9194 51.7126 52.8067 51.5251 52.6563 51.3376C52.318 51.0001 51.7166 51.0001 51.3783 51.3376C51.228 51.5251 51.1152 51.7126 51.1152 51.9751C51.1152 52.2376 51.228 52.4626 51.3783 52.6126C51.5663 52.8001 51.7542 52.8751 52.0173 52.8751C52.2428 52.8751 52.506 52.8001 52.6563 52.6126Z" fill="white"/>
<path fill-rule="evenodd" clip-rule="evenodd" d="M55.2496 55.125C55.4375 54.975 55.5503 54.75 55.5503 54.4875C55.5503 54.225 55.4375 54.0375 55.2496 53.85C54.8737 53.5125 54.2723 53.5125 53.934 53.85C53.7461 54.0375 53.6333 54.225 53.6333 54.4875C53.6333 54.75 53.7461 54.975 53.934 55.125C54.1219 55.275 54.3851 55.3875 54.6106 55.3875C54.8737 55.3875 55.0992 55.3125 55.2496 55.125Z" fill="white"/>
<path fill-rule="evenodd" clip-rule="evenodd" d="M57.7305 57.6375C57.9185 57.45 57.9937 57.2625 57.9937 57C57.9937 56.7375 57.8809 56.55 57.7305 56.3625C57.3922 56.025 56.7908 56.025 56.4525 56.3625C56.2646 56.55 56.1894 56.7375 56.1894 57C56.1894 57.2625 56.3022 57.45 56.4525 57.6375C56.6029 57.7875 56.8284 57.9 57.0915 57.9C57.2795 57.9375 57.505 57.825 57.7305 57.6375Z" fill="white"/>
<path fill-rule="evenodd" clip-rule="evenodd" d="M56.4525 27.5249C56.3022 27.3374 56.1894 27.15 56.1894 26.8875C56.1894 26.625 56.3022 26.4375 56.4525 26.25C56.7908 25.9125 57.3922 25.9125 57.7305 26.25C57.9185 26.4375 57.9937 26.625 57.9937 26.8875C57.9937 27.15 57.8809 27.3374 57.7305 27.5249C57.5802 27.6749 57.3547 27.7874 57.0915 27.7874C56.8284 27.8249 56.6029 27.7499 56.4525 27.5249Z" fill="white"/>
<path fill-rule="evenodd" clip-rule="evenodd" d="M53.934 30.1126C53.7461 29.9251 53.6333 29.7376 53.6333 29.4751C53.6333 29.2126 53.7461 29.0251 53.934 28.8376C54.3099 28.5001 54.9113 28.5001 55.3248 28.8376C55.5127 29.0251 55.6255 29.2126 55.6255 29.4751C55.6255 29.7376 55.5127 29.9251 55.3248 30.1126C55.1368 30.2626 54.8737 30.3751 54.6482 30.3751C54.3851 30.3376 54.122 30.2626 53.934 30.1126Z" fill="white"/>
<path fill-rule="evenodd" clip-rule="evenodd" d="M51.3783 32.5875C51.228 32.4375 51.1152 32.2125 51.1152 31.95C51.1152 31.6875 51.228 31.5 51.3783 31.3125C51.7166 30.975 52.318 30.975 52.6563 31.3125C52.8067 31.4625 52.9194 31.6875 52.9194 31.95C52.9194 32.2125 52.8067 32.4 52.6563 32.5875C52.4684 32.775 52.2804 32.8499 52.0173 32.8499C51.7918 32.8499 51.5663 32.7375 51.3783 32.5875Z" fill="white"/>
<path fill-rule="evenodd" clip-rule="evenodd" d="M48.8598 35.0999C48.7094 34.9499 48.5967 34.7249 48.5967 34.4624C48.5967 34.1999 48.7094 34.0124 48.8598 33.8249C49.1981 33.4874 49.7995 33.4874 50.1378 33.8249C50.2881 33.9749 50.4009 34.1999 50.4009 34.4624C50.4009 34.7249 50.2881 34.9499 50.1378 35.0999C49.9498 35.2874 49.7619 35.3624 49.4988 35.3624C49.2732 35.3624 49.0477 35.3249 48.8598 35.0999Z" fill="white"/>
<path fill-rule="evenodd" clip-rule="evenodd" d="M46.3788 37.6126C46.1909 37.4626 46.0781 37.2376 46.0781 36.9751C46.0781 36.7126 46.1909 36.5251 46.3788 36.3376C46.7171 36.0001 47.3561 36.0001 47.6944 36.3376C47.8824 36.4876 47.9951 36.7126 47.9951 36.9751C47.9951 37.2376 47.8824 37.4626 47.6944 37.6126C47.5065 37.8001 47.2434 37.8751 47.0178 37.8751C46.7923 37.9126 46.5292 37.8376 46.3788 37.6126Z" fill="white"/>
<path fill-rule="evenodd" clip-rule="evenodd" d="M43.56 39.4876C43.56 39.225 43.6728 39.0375 43.8231 38.85C44.1614 38.5125 44.7628 38.5125 45.1011 38.85C45.2891 39.0375 45.3643 39.225 45.3643 39.4876C45.3643 39.7501 45.2515 39.9376 45.1011 40.1251C44.9508 40.2751 44.7253 40.3876 44.4621 40.3876C44.199 40.3876 44.0111 40.2751 43.8231 40.1251C43.6352 39.9751 43.56 39.7501 43.56 39.4876Z" fill="white"/>
<path fill-rule="evenodd" clip-rule="evenodd" d="M41.3046 42.6751C41.1167 42.4876 41.0415 42.3001 41.0415 42.0376C41.0415 41.7751 41.1542 41.5876 41.3046 41.4001C41.6429 41.0626 42.2443 41.0626 42.5826 41.4001C42.7705 41.5876 42.8457 41.7751 42.8457 42.0376C42.8457 42.3001 42.7329 42.4876 42.5826 42.6751C42.4322 42.8251 42.2067 42.9376 41.9436 42.9376C41.6805 42.9376 41.4549 42.8251 41.3046 42.6751Z" fill="white"/>
<path fill-rule="evenodd" clip-rule="evenodd" d="M38.7861 45.0374C38.5981 44.8874 38.4854 44.6624 38.4854 44.3999C38.4854 44.1374 38.5981 43.9499 38.7861 43.7624C39.1619 43.4249 39.7633 43.4249 40.1016 43.7624C40.2896 43.9499 40.4023 44.1374 40.4023 44.3999C40.4023 44.6624 40.2896 44.8499 40.1016 45.0374C39.9137 45.2249 39.6506 45.2999 39.4251 45.2999C39.2371 45.3374 38.974 45.2624 38.7861 45.0374Z" fill="white"/>
<path fill-rule="evenodd" clip-rule="evenodd" d="M36.2304 47.5501C36.08 47.4001 35.9673 47.1751 35.9673 46.9126C35.9673 46.6501 36.08 46.4626 36.2304 46.2751C36.5687 45.9376 37.1701 45.9376 37.5084 46.2751C37.6587 46.4626 37.7715 46.6501 37.7715 46.9126C37.7715 47.1751 37.6587 47.3626 37.5084 47.5501C37.3204 47.7376 37.1325 47.8126 36.8694 47.8126C36.6814 47.8501 36.4183 47.7376 36.2304 47.5501Z" fill="white"/>
<path fill-rule="evenodd" clip-rule="evenodd" d="M33.7118 50.0999C33.5615 49.9499 33.4487 49.7249 33.4487 49.4624C33.4487 49.1999 33.5615 48.9749 33.7118 48.8249C34.0501 48.4874 34.6515 48.4874 34.9898 48.8249C35.1402 48.9749 35.2529 49.1999 35.2529 49.4624C35.2529 49.7249 35.1402 49.9124 34.9898 50.0999C34.8019 50.2874 34.6139 50.3624 34.3508 50.3624C34.0877 50.3624 33.8998 50.2499 33.7118 50.0999Z" fill="white"/>
<path fill-rule="evenodd" clip-rule="evenodd" d="M31.3437 52.6126C31.1557 52.4626 31.0805 52.2376 31.0805 51.9751C31.0805 51.7126 31.1933 51.5251 31.3437 51.3376C31.6819 51.0001 32.2834 51.0001 32.6216 51.3376C32.772 51.5251 32.8848 51.7126 32.8848 51.9751C32.8848 52.2376 32.772 52.4626 32.6216 52.6126C32.4337 52.8001 32.2458 52.8751 31.9826 52.8751C31.7571 52.8751 31.494 52.8001 31.3437 52.6126Z" fill="white"/>
<path fill-rule="evenodd" clip-rule="evenodd" d="M28.6752 55.125C28.4873 54.975 28.4121 54.75 28.4121 54.4875C28.4121 54.225 28.5248 54.0375 28.6752 53.85C29.0135 53.5125 29.6149 53.5125 29.9532 53.85C30.1411 54.0375 30.2163 54.225 30.2163 54.4875C30.2163 54.75 30.1035 54.975 29.9532 55.125C29.8028 55.275 29.5773 55.3875 29.3142 55.3875C29.0511 55.3875 28.8255 55.3125 28.6752 55.125Z" fill="white"/>
<path fill-rule="evenodd" clip-rule="evenodd" d="M26.1567 57.6375C25.9687 57.45 25.856 57.2625 25.856 57C25.856 56.7375 25.9687 56.55 26.1567 56.3625C26.5325 56.025 27.134 56.025 27.4722 56.3625C27.6602 56.55 27.7729 56.7375 27.7729 57C27.7729 57.2625 27.6602 57.45 27.4722 57.6375C27.2843 57.7875 27.0212 57.9 26.7957 57.9C26.6077 57.9375 26.3822 57.825 26.1567 57.6375Z" fill="white"/>
<path fill-rule="evenodd" clip-rule="evenodd" d="M50.476 28.2375C47.92 26.55 45.1009 25.7625 41.9811 25.725C38.9364 25.725 36.1173 26.55 33.4862 28.2375L28.0735 22.8375C32.3209 19.6125 36.9067 18 41.9811 18C47.0555 18 51.7164 19.6125 55.8511 22.8375L50.476 28.2375Z" fill="white"/>
<path fill-rule="evenodd" clip-rule="evenodd" d="M55.8888 50.4C57.6179 47.775 58.4448 45 58.4448 42C58.4448 38.9625 57.6179 36.15 55.8888 33.6L61.2639 28.2375C64.4213 32.3625 66 36.9375 66 42.0375C66 47.0625 64.4213 51.675 61.2263 55.875L55.8888 50.4Z" fill="white"/>
<path fill-rule="evenodd" clip-rule="evenodd" d="M33.5238 55.7625C36.0797 57.4875 38.8989 58.3875 41.9435 58.425C45.0633 58.425 47.92 57.6 50.476 55.8L55.8887 61.1624C51.7164 64.4249 47.0555 66.0374 41.9435 65.9999C36.8691 65.9624 32.2833 64.3124 28.1487 61.1624L33.5238 55.7625Z" fill="white"/>
<path fill-rule="evenodd" clip-rule="evenodd" d="M28.2241 33.525C26.4951 36.15 25.593 39 25.6681 42.075C25.7057 45.075 26.5702 47.8125 28.2241 50.325L22.8114 55.6875C19.6164 51.5625 17.9626 46.9875 17.9626 41.9625C17.925 36.8625 19.5413 32.2125 22.8114 28.05L28.2241 33.525Z" fill="white"/>
<path fill-rule="evenodd" clip-rule="evenodd" d="M22.5859 57.45C20.5186 57.45 18.7895 59.1375 18.7895 61.2375C18.7895 63.3 20.481 65.025 22.5859 65.025C24.6533 65.025 26.3823 63.3375 26.3823 61.2375C26.3823 59.1375 24.6909 57.45 22.5859 57.45Z" fill="white"/>
<path fill-rule="evenodd" clip-rule="evenodd" d="M61.3012 57.45C59.2339 57.45 57.5424 59.1375 57.5424 61.2375C57.5424 63.3 59.2339 65.025 61.3012 65.025C63.3686 65.025 65.0601 63.3375 65.0601 61.2375C65.0601 59.1375 63.3686 57.45 61.3012 57.45Z" fill="white"/>
<path fill-rule="evenodd" clip-rule="evenodd" d="M22.5107 18.825C20.4434 18.825 18.7519 20.5125 18.7519 22.6125C18.7519 24.7125 20.4434 26.4 22.5107 26.4C24.5781 26.4 26.2695 24.7125 26.2695 22.6125C26.2695 20.5125 24.5781 18.825 22.5107 18.825Z" fill="white"/>
<path fill-rule="evenodd" clip-rule="evenodd" d="M61.3765 18.825C59.3091 18.825 57.5801 20.5125 57.5801 22.575C57.5801 24.6375 59.2715 26.325 61.3765 26.325C63.4438 26.325 65.1729 24.6375 65.1729 22.575C65.1729 20.5125 63.4814 18.825 61.3765 18.825Z" fill="white"/>
</g>
<defs>
<clipPath id="clip0_1308_192">
<rect width="48" height="48" fill="white" transform="matrix(-1 0 0 1 66 18)"/>
</clipPath>
</defs>
</svg>
