<svg width="84" height="84" viewBox="0 0 84 84" fill="none" xmlns="http://www.w3.org/2000/svg">
<circle cx="42" cy="42" r="42" fill="white"/>
<path d="M27.9799 43.5251V20.0468H57.1572V29.6321H38.0602V33.7258H57.1171V43.5251H27.9799ZM30.8094 40.8495H54.4548V36.388H35.3846V26.9298H54.5017V22.6622H30.8094V40.8495ZM20 64.7625V54.99H36.5953V50.4883H20.087V20.0468H22.5351V47.7458H39.2977V64.7625H20ZM36.6355 57.7124H22.6756V61.9799H36.6355V57.7124ZM44.7023 47.8328H61.3846V20H64V50.4883H47.4916V54.99H64V64.7625H44.7492C44.7023 59.1505 44.7023 53.6522 44.7023 47.8328ZM61.2977 62.0201V57.7525H47.3645V62.0201H61.2977Z" fill="#015776"/>
</svg>
