<svg width="84" height="84" viewBox="0 0 84 84" fill="none" xmlns="http://www.w3.org/2000/svg">
<circle cx="42" cy="42" r="42" fill="#C2A633"/>
<path fill-rule="evenodd" clip-rule="evenodd" d="M28.1114 63.9709H42.6114H42.6118C42.6118 63.9709 63 65.7071 63 42.3538C63 19.906 44.3818 19.9856 40.7834 20.0009C40.6992 20.0013 40.6232 20.0016 40.5558 20.0016H28.111V39.5881H23V44.3857H28.1114V63.9709ZM36.2785 28.1289H41.9993C44.1389 28.1289 54.9038 29.0039 54.921 42.5121C54.938 55.8594 44.0846 55.8456 42.3387 55.8434C42.3176 55.8433 42.2979 55.8433 42.2795 55.8433H36.2785V44.3853H45.2788V39.5877H36.2785V28.1289Z" fill="white"/>
</svg>
