<svg width="84" height="84" viewBox="0 0 84 84" fill="none" xmlns="http://www.w3.org/2000/svg">
<rect width="84" height="84" rx="42" fill="#0D022B"/>
<circle cx="42" cy="42" r="41.5" fill="white" stroke="black"/>
<path d="M41.9999 0C18.8089 0 0 18.8089 0 41.9999C0 65.1907 18.8089 83.9998 41.9999 83.9998C65.1907 83.9998 83.9998 65.1907 83.9998 41.9999C84.0671 18.8089 65.2582 0 41.9999 0ZM40.1121 62.6962C37.8201 64.3143 35.056 65.2582 32.292 65.2582C27.4381 65.2582 22.9887 62.629 19.6179 57.7749C16.5842 53.1233 14.8988 47.7303 14.764 42.202C14.764 41.9999 14.8988 41.7975 15.1011 41.7302L18.4044 40.2469C18.6741 40.1121 18.9437 40.2469 19.0786 40.5166C19.0786 40.5842 19.146 40.6515 19.146 40.7191C19.146 46.247 20.6291 51.438 23.2583 55.2808C25.7527 58.9213 28.9886 60.876 32.3594 60.876C34.1797 60.876 35.9999 60.337 37.4832 59.3255C37.6853 59.1906 38.0222 59.2582 38.157 59.4603C38.8313 60.337 39.5055 61.1457 40.2469 61.9547C40.3145 62.1572 40.3145 62.4941 40.1121 62.6962ZM64.4492 57.7749C61.1457 62.5617 56.6289 65.2582 51.7752 65.2582C46.9212 65.2582 42.4717 62.5617 39.1009 57.7749C35.9323 53.1909 34.1797 47.1233 34.1797 40.7191C34.1797 34.7863 37.6177 30.1347 41.9323 30.1347C46.247 30.1347 49.6853 34.7863 49.6853 40.7191C49.7526 45.91 48.539 50.9662 46.1121 55.5502C45.9773 55.8199 45.6404 55.8875 45.4379 55.7526C45.3707 55.7526 45.3707 55.685 45.3031 55.6178C44.8985 55.146 44.4944 54.6739 44.1571 54.2021C43.7525 53.5954 43.4156 53.0561 43.0783 52.3819C43.0111 52.247 43.0111 52.0446 43.0783 51.9097C44.6292 48.3369 45.3707 44.4943 45.3707 40.6515C45.3707 37.7525 43.8874 34.4493 41.9323 34.4493C39.9773 34.4493 38.4943 37.7525 38.4943 40.6515C38.4943 46.1797 39.9773 51.3707 42.6065 55.2132C45.101 58.8537 48.3369 60.8087 51.7076 60.8087C55.0784 60.8087 58.3143 58.7864 60.8087 55.2132C63.438 51.3707 64.921 46.1797 64.921 40.6515C64.921 35.1236 63.438 29.9324 60.8087 26.0898C60.0673 24.9437 59.1234 23.9325 58.1122 23.0561C57.9098 22.8538 57.9098 22.5168 58.0446 22.3145C58.1122 22.2471 58.1795 22.1797 58.2471 22.1797L61.5502 20.6965C61.7526 20.6291 61.9547 20.6291 62.0896 20.8314C62.9659 21.7078 63.7077 22.6516 64.3819 23.5954C67.5503 28.1797 69.3032 34.2469 69.3032 40.6515C69.3032 47.056 67.6178 53.1909 64.4492 57.7749Z" fill="#A566FF"/>
</svg>
