<svg width="84" height="84" viewBox="0 0 84 84" fill="none" xmlns="http://www.w3.org/2000/svg">
<circle cx="42" cy="42" r="42" fill="#00411A"/>
<path d="M25.002 42.0287L42.1081 33.0762L58.9937 41.9637L42.1227 50.9239L25.002 42.0287Z" fill="#009F42"/>
<path d="M25.002 42.0287L42.1081 33.0762L58.9937 41.9637L42.1227 50.9239L25.002 42.0287Z" fill="#01C853"/>
<path d="M42.1079 33.0762L58.9935 41.9637L42.1226 50.9239L42.1079 33.0762Z" fill="#009F42"/>
<path d="M42.1079 43.4018L58.9935 41.9639L42.1226 50.9241L42.1079 43.4018H42.1079Z" fill="#007831"/>
<path d="M42.1081 43.4018L25.002 42.0288L42.0934 50.924L42.1081 43.4018H42.1081Z" fill="#009F42"/>
<path d="M25 44.4092C30.992 47.5261 37.2357 50.7932 42.0698 53.3192L59 44.4117C52.8701 53.3448 47.764 60.7754 42.0697 68.9999C36.3683 60.7926 30.0684 51.7335 25 44.4092Z" fill="#009F42"/>
<path d="M25 44.4092C30.992 47.5261 37.2357 50.7932 42.0698 53.3192L59 44.4117C52.8701 53.3448 47.764 60.7754 42.0697 68.9999C36.3683 60.7926 30.0684 51.7335 25 44.4092Z" fill="#01C853"/>
<path d="M42.0699 53.3191L59.0001 44.4116C52.8702 53.3447 42.0698 68.9998 42.0698 68.9998L42.0699 53.3191Z" fill="#009F42"/>
<path d="M42.0699 53.3191L59.0001 44.4116C52.8702 53.3447 47.7642 60.7753 42.0698 68.9998L42.0699 53.3191Z" fill="#009F42"/>
<path d="M42.0664 30.5865L25.002 39.3988L41.9923 15L58.9935 39.4522L42.0664 30.5865Z" fill="#01C853"/>
<path d="M42.0663 30.5865L41.9922 15L58.9934 39.4522L42.0663 30.5865Z" fill="#009F42"/>
</svg>
