<svg width="84" height="84" viewBox="0 0 84 84" fill="none" xmlns="http://www.w3.org/2000/svg">
<circle cx="42" cy="42" r="42" fill="#1C243B"/>
<rect width="53" height="49" transform="translate(16 17)" fill="white"/>
<path fill-rule="evenodd" clip-rule="evenodd" d="M10.8687 42.1436L14.5 69.5L41.8687 73.1426L70.5 69.5L73.0634 42.078L70.5 13.5L41.9189 11L13 13L10.8687 42.1436ZM36.3302 20.4643C35.3442 20.5991 33.5746 21.0411 32.3979 21.447C25.1315 23.9515 20.0333 29.5238 17.9129 37.2789C17.2947 39.5394 17.2952 45.0054 17.9137 47.2674C19.0713 51.5017 20.6592 54.4243 23.3857 57.339C31.6332 66.156 45.4262 66.5858 54.2098 58.2998C57.3227 55.3631 59.0052 52.7448 60.2225 48.9435C60.7316 47.3539 61.046 46.8631 62.432 45.4952C64.1538 43.7957 65.5599 41.4298 66.2564 39.0601C66.7273 37.458 66.7983 33.592 66.3894 31.8092C65.4728 27.8118 62.3132 23.9456 58.402 22.0357C54.977 20.3633 51.6032 20.0626 48.0625 21.1142C46.8491 21.4746 46.5964 21.4648 44.6336 20.9822C42.0399 20.3447 38.7216 20.1377 36.3302 20.4643ZM54.6549 26.7072C58.2604 30.3269 60.2524 34.1624 60.9913 38.9059C61.1455 39.8964 61.3077 40.7429 61.3516 40.7868C61.5449 40.9798 62.5919 38.0865 62.8068 36.7656C63.1036 34.9413 62.7309 32.4249 61.8903 30.5814C61.107 28.8635 58.8975 26.5132 57.309 25.7082C56.0982 25.0946 53.5234 24.3176 52.7008 24.3176C52.4459 24.3176 53.2307 25.2773 54.6549 26.7072ZM35.7978 25.2171C30.1202 26.469 25.9781 29.7806 23.513 35.0384C22.3456 37.529 21.9253 39.4435 21.9253 42.2717C21.9253 45.1 22.3456 47.0145 23.513 49.5051C24.7729 52.1923 26.2325 54.0887 28.3436 55.7816C30.3563 57.3956 31.7841 58.1549 34.2478 58.9213C41.3719 61.1373 49.597 58.251 53.7187 52.0884C54.4474 50.999 55.0437 50.0047 55.0437 49.8791C55.0437 49.7533 54.1426 49.7164 53.0416 49.7967C48.7414 50.1111 45.0102 48.6815 41.8061 45.4919C39.6607 43.3562 38.618 41.5458 37.8746 38.6654C36.8379 34.6499 37.8686 29.6281 40.4088 26.3173C40.9275 25.6413 41.352 25.0311 41.352 24.9611C41.352 24.7007 37.2912 24.8877 35.7978 25.2171Z" fill="#1C243B"/>
</svg>
