<svg width="84" height="84" viewBox="0 0 84 84" fill="none" xmlns="http://www.w3.org/2000/svg">
<circle cx="42" cy="42" r="42" fill="#62D1E5"/>
<path d="M32.4391 23.0024C42.958 22.9992 53.4776 22.9992 63.9978 23.0024C64.001 26.3978 64.001 29.7927 63.9978 33.1869C53.4786 33.1902 42.959 33.1902 32.4391 33.1869C32.4357 29.7915 32.4357 26.3967 32.4391 23.0024Z" fill="white"/>
<path d="M20.0132 37.0186C23.4069 37.001 26.8011 37.001 30.196 37.0186C30.2136 40.4075 30.2136 43.7971 30.196 47.1873C26.8013 47.2047 23.407 47.205 20.0132 47.1881C19.9956 43.7986 19.9956 40.4087 20.0132 37.0186Z" fill="white"/>
<path d="M32.4469 37.0184C40.0393 37.0023 47.6312 37.0023 55.2225 37.0184C55.2387 40.4074 55.2387 43.797 55.2225 47.1871C47.6303 47.203 40.0384 47.203 32.4469 47.1871C32.4311 43.798 32.4311 40.4084 32.4469 37.0184Z" fill="white"/>
<path d="M32.4562 51.0378C35.8442 51.0011 39.2316 51.0011 42.6183 51.0378C42.6535 54.4189 42.654 57.8016 42.6199 61.1859C39.2319 61.2193 35.8446 61.2187 32.458 61.1841C32.4228 57.8033 32.4222 54.4212 32.4562 51.0378Z" fill="white"/>
</svg>
