<svg width="84" height="84" viewBox="0 0 84 84" fill="none" xmlns="http://www.w3.org/2000/svg">
<circle cx="42" cy="42" r="42" fill="white"/>
<g clip-path="url(#clip0_1625_1935)">
<path d="M63.9717 20.0737C63.8016 20.0473 63.6807 20.0114 63.5616 20.0114C52.2597 20.0114 40.9598 19.9717 29.6579 20.0473C26.9916 20.0643 24.503 20.9279 22.5964 22.9479C21.1602 24.4671 20.4762 26.285 20.6085 28.4127C20.839 28.4316 20.9618 28.4524 21.0846 28.4524C32.1654 28.4524 43.2462 28.4845 54.327 28.4089C55.8633 28.3976 57.4657 28.0442 58.9169 27.5208C62.3333 26.2868 64.2551 23.3504 63.9698 20.0756L63.9717 20.0737ZM48.6789 37.8079C48.5258 37.7682 48.437 37.7248 48.3463 37.7248C41.7024 37.7437 35.0566 37.6662 28.4164 37.8325C25.6405 37.9024 23.1292 39.0154 21.3964 41.3623C20.3647 42.7587 19.8299 44.3271 20.0661 46.1128C20.274 46.1412 20.3949 46.1733 20.5178 46.1733C26.5948 46.1714 32.6737 46.2432 38.7489 46.1147C40.5006 46.0769 42.3279 45.6895 43.9643 45.0603C47.1615 43.8302 48.9982 40.8105 48.6789 37.806V37.8079ZM20 58.5296C19.9981 61.3395 22.0068 63.4218 24.7279 63.4275C27.4999 63.4351 29.6258 61.313 29.6182 58.5485C29.6125 55.8501 27.4659 53.6751 24.7921 53.66C22.1032 53.643 20.0019 55.7783 20 58.5296Z" fill="white"/>
<path d="M63.9717 20.0738C64.257 23.3485 62.3352 26.285 58.9188 27.5189C57.4657 28.0442 55.8651 28.3976 54.3289 28.407C43.2481 28.4826 32.1673 28.4505 21.0865 28.4505C20.9637 28.4505 20.8409 28.4316 20.6103 28.4108C20.4781 26.2831 21.1621 24.4653 22.5963 22.9441C24.503 20.926 26.9916 20.0643 29.6579 20.0454C40.9579 19.9698 52.2597 20.0114 63.5616 20.0114C63.6806 20.0114 63.8016 20.0473 63.9717 20.0738Z" fill="#373B68"/>
<path d="M48.6787 37.8079C48.9999 40.8105 47.1613 43.8321 43.9641 45.0622C42.3276 45.6914 40.5004 46.0788 38.7487 46.1166C32.6735 46.2451 26.5946 46.1733 20.5175 46.1752C20.3947 46.1752 20.2738 46.1431 20.0659 46.1147C19.8297 44.3271 20.3664 42.7587 21.3962 41.3642C23.1309 39.0173 25.6403 37.9043 28.4162 37.8344C35.0563 37.6681 41.7022 37.7456 48.3461 37.7267C48.4349 37.7267 48.5256 37.7701 48.6787 37.8098V37.8079Z" fill="#373B68"/>
<path d="M20 58.5293C20.0019 55.7799 22.1032 53.6446 24.7921 53.6597C27.4659 53.6749 29.6125 55.8498 29.6182 58.5482C29.6239 61.3127 27.498 63.4348 24.7279 63.4272C22.0068 63.4197 19.9981 61.3392 20 58.5293Z" fill="#373B68"/>
</g>
<defs>
<clipPath id="clip0_1625_1935">
<rect width="44" height="43.4274" fill="white" transform="translate(20 20)"/>
</clipPath>
</defs>
</svg>
