<svg width="84" height="84" viewBox="0 0 84 84" fill="none" xmlns="http://www.w3.org/2000/svg">
<circle cx="42" cy="42" r="42" fill="#1C1C1C"/>
<path fill-rule="evenodd" clip-rule="evenodd" d="M45.117 15L46.3597 15L29.9131 37.3504L46 56.7H44.7114L28 37.4035L45.117 15Z" fill="#CAB3F5"/>
<path fill-rule="evenodd" clip-rule="evenodd" d="M36.117 15H37.5L20.9131 37.3504L37.1403 56.7L35.7114 56.7L19 37.4035L36.117 15Z" fill="#C8B2F5"/>
<path d="M51.3562 15.3501L51.0742 16.2844V43.3946L51.3562 43.669L64.258 36.2305L51.3562 15.3501Z" fill="#B8FBF6"/>
<path d="M51.3533 15.3501L38.4512 36.2305L51.3533 43.669V30.5105V15.3501Z" fill="#EECBC0"/>
<path d="M51.3562 46.0513L51.1973 46.2404V55.8974L51.3562 56.35L64.2659 38.6167L51.3562 46.0513Z" fill="#C8B2F5"/>
<path d="M51.3533 56.35V46.0513L38.4512 38.6167L51.3533 56.35Z" fill="#EECBC0"/>
<path d="M51.3516 43.6688L64.2533 36.2303L51.3516 30.5103V43.6688Z" fill="#CAB3F5"/>
<path d="M38.4512 36.2303L51.3533 43.6688V30.5103L38.4512 36.2303Z" fill="#87A9F0"/>
<path fill-rule="evenodd" clip-rule="evenodd" d="M20 60.3878C20 59.8147 20.3124 59.3501 20.6977 59.3501C22.6422 59.3501 23.6495 60.0749 24.5841 60.7521L24.595 60.76C25.4463 61.377 26.2294 61.9445 27.8579 61.9445C29.4867 61.9445 30.2702 61.3768 31.1219 60.7598L31.1325 60.7521C32.0672 60.0749 33.0744 59.3501 35.0181 59.3501C36.9618 59.3501 37.9691 60.0749 38.9039 60.752L38.9142 60.7595C39.7662 61.3766 40.5502 61.9445 42.1801 61.9445C43.8097 61.9445 44.5932 61.3768 45.4449 60.7598L45.4555 60.7521C46.3903 60.0749 47.3975 59.3501 49.342 59.3501C51.2866 59.3501 52.2938 60.0749 53.2285 60.7521L53.2392 60.7598C54.0908 61.3768 54.8743 61.9445 56.504 61.9445C58.1336 61.9445 58.9171 61.3768 59.7688 60.7598L59.7794 60.7521C60.7142 60.0749 61.7214 59.3501 63.6659 59.3501C64.0513 59.3501 64.3636 59.8147 64.3636 60.3878C64.3636 60.961 64.0513 61.4256 63.6659 61.4256C62.0363 61.4256 61.2528 61.9933 60.4011 62.6103L60.3905 62.618C59.4558 63.2952 58.4485 64.02 56.504 64.02C54.5595 64.02 53.5522 63.2952 52.6175 62.618L52.6068 62.6103C51.7552 61.9933 50.9717 61.4256 49.342 61.4256C47.7124 61.4256 46.9289 61.9933 46.0772 62.6103L46.0666 62.618C45.1318 63.2952 44.1246 64.02 42.1801 64.02C40.2356 64.02 39.2279 63.2952 38.293 62.618L38.2821 62.6101C37.4302 61.9931 36.6467 61.4256 35.0181 61.4256C33.3893 61.4256 32.6058 61.9932 31.7542 62.6103L31.7435 62.618C30.8089 63.2951 29.8016 64.02 27.8579 64.02C25.9142 64.02 24.9073 63.2951 23.9729 62.6179L23.9625 62.6104C23.111 61.9934 22.3275 61.4256 20.6977 61.4256C20.3124 61.4256 20 60.961 20 60.3878Z" fill="#C8B2F5"/>
<path fill-rule="evenodd" clip-rule="evenodd" d="M20 65.0578C20 64.4846 20.3124 64.02 20.6977 64.02C22.6422 64.02 23.6495 64.7448 24.5841 65.422L24.595 65.43C25.4463 66.0469 26.2294 66.6144 27.8579 66.6144C29.4867 66.6144 30.2702 66.0467 31.1219 65.4297L31.1325 65.422C32.0672 64.7448 33.0744 64.02 35.0181 64.02C36.9618 64.02 37.9691 64.7448 38.9039 65.4219L38.9142 65.4294C39.7662 66.0465 40.5502 66.6144 42.1801 66.6144C43.8097 66.6144 44.5932 66.0467 45.4449 65.4297L45.4555 65.422C46.3903 64.7448 47.3975 64.02 49.342 64.02C51.2866 64.02 52.2938 64.7448 53.2285 65.422L53.2392 65.4297C54.0908 66.0467 54.8743 66.6144 56.504 66.6144C58.1336 66.6144 58.9171 66.0467 59.7688 65.4297L59.7794 65.422C60.7142 64.7448 61.7214 64.02 63.6659 64.02C64.0513 64.02 64.3636 64.4846 64.3636 65.0578C64.3636 65.6309 64.0513 66.0955 63.6659 66.0955C62.0363 66.0955 61.2528 66.6632 60.4011 67.2802L60.3905 67.2879C59.4558 67.9651 58.4485 68.6899 56.504 68.6899C54.5595 68.6899 53.5522 67.9651 52.6175 67.2879L52.6068 67.2802C51.7552 66.6632 50.9717 66.0955 49.342 66.0955C47.7124 66.0955 46.9289 66.6632 46.0772 67.2802L46.0666 67.2879C45.1318 67.9651 44.1246 68.6899 42.1801 68.6899C40.2356 68.6899 39.2279 67.9651 38.293 67.2879L38.2821 67.2801C37.4302 66.663 36.6467 66.0955 35.0181 66.0955C33.3893 66.0955 32.6058 66.6632 31.7542 67.2802L31.7435 67.2879C30.8089 67.9651 29.8016 68.6899 27.8579 68.6899C25.9142 68.6899 24.9073 67.965 23.9729 67.2879L23.9625 67.2803C23.111 66.6633 22.3275 66.0955 20.6977 66.0955C20.3124 66.0955 20 65.6309 20 65.0578Z" fill="#C8B2F5"/>
</svg>
