<svg width="84" height="84" viewBox="0 0 84 84" fill="none" xmlns="http://www.w3.org/2000/svg">
<circle cx="42" cy="42" r="42" fill="#1C1C1C"/>
<path d="M41.9051 16L41.623 16.9343V44.0445L41.9051 44.3189L54.8068 36.8804L41.9051 16Z" fill="#B8FBF6"/>
<path d="M41.9021 16L29 36.8804L41.9021 44.3189V31.1604V16Z" fill="#EECBC0"/>
<path d="M41.905 46.7012L41.7461 46.8903V56.5473L41.905 56.9999L54.8147 39.2666L41.905 46.7012Z" fill="#C8B2F5"/>
<path d="M41.9021 56.9999V46.7012L29 39.2666L41.9021 56.9999Z" fill="#EECBC0"/>
<path d="M41.9004 44.3187L54.8021 36.8802L41.9004 31.1602V44.3187Z" fill="#CAB3F5"/>
<path d="M29 36.8802L41.9021 44.3187V31.1602L29 36.8802Z" fill="#87A9F0"/>
<path fill-rule="evenodd" clip-rule="evenodd" d="M20 60.0377C20 59.4646 20.3124 59 20.6977 59C22.6422 59 23.6495 59.7248 24.5841 60.402L24.595 60.4099C25.4463 61.0269 26.2294 61.5944 27.8579 61.5944C29.4867 61.5944 30.2702 61.0267 31.1219 60.4097L31.1325 60.402C32.0672 59.7248 33.0744 59 35.0181 59C36.9618 59 37.9691 59.7248 38.9039 60.4019L38.9142 60.4094C39.7662 61.0265 40.5502 61.5944 42.1801 61.5944C43.8097 61.5944 44.5932 61.0267 45.4449 60.4097L45.4555 60.402C46.3903 59.7248 47.3975 59 49.342 59C51.2866 59 52.2938 59.7248 53.2285 60.402L53.2392 60.4097C54.0908 61.0267 54.8743 61.5944 56.504 61.5944C58.1336 61.5944 58.9171 61.0267 59.7688 60.4097L59.7794 60.402C60.7142 59.7248 61.7214 59 63.6659 59C64.0513 59 64.3636 59.4646 64.3636 60.0377C64.3636 60.6109 64.0513 61.0755 63.6659 61.0755C62.0363 61.0755 61.2528 61.6432 60.4011 62.2602L60.3905 62.2679C59.4558 62.9451 58.4485 63.6699 56.504 63.6699C54.5595 63.6699 53.5522 62.9451 52.6175 62.2679L52.6068 62.2602C51.7552 61.6432 50.9717 61.0755 49.342 61.0755C47.7124 61.0755 46.9289 61.6432 46.0772 62.2602L46.0666 62.2679C45.1318 62.9451 44.1246 63.6699 42.1801 63.6699C40.2356 63.6699 39.2279 62.9451 38.293 62.2679L38.2821 62.26C37.4302 61.643 36.6467 61.0755 35.0181 61.0755C33.3893 61.0755 32.6058 61.6431 31.7542 62.2602L31.7435 62.2679C30.8089 62.945 29.8016 63.6699 27.8579 63.6699C25.9142 63.6699 24.9073 62.945 23.9729 62.2678L23.9625 62.2603C23.111 61.6433 22.3275 61.0755 20.6977 61.0755C20.3124 61.0755 20 60.6109 20 60.0377Z" fill="#C8B2F5"/>
<path fill-rule="evenodd" clip-rule="evenodd" d="M20 64.7077C20 64.1345 20.3124 63.6699 20.6977 63.6699C22.6422 63.6699 23.6495 64.3947 24.5841 65.0719L24.595 65.0799C25.4463 65.6968 26.2294 66.2643 27.8579 66.2643C29.4867 66.2643 30.2702 65.6966 31.1219 65.0796L31.1325 65.0719C32.0672 64.3947 33.0744 63.6699 35.0181 63.6699C36.9618 63.6699 37.9691 64.3947 38.9039 65.0719L38.9142 65.0793C39.7662 65.6964 40.5502 66.2643 42.1801 66.2643C43.8097 66.2643 44.5932 65.6966 45.4449 65.0796L45.4555 65.0719C46.3903 64.3947 47.3975 63.6699 49.342 63.6699C51.2866 63.6699 52.2938 64.3947 53.2285 65.0719L53.2392 65.0796C54.0908 65.6966 54.8743 66.2643 56.504 66.2643C58.1336 66.2643 58.9171 65.6966 59.7688 65.0796L59.7794 65.0719C60.7142 64.3947 61.7214 63.6699 63.6659 63.6699C64.0513 63.6699 64.3636 64.1345 64.3636 64.7077C64.3636 65.2808 64.0513 65.7454 63.6659 65.7454C62.0363 65.7454 61.2528 66.3131 60.4011 66.9301L60.3905 66.9378C59.4558 67.615 58.4485 68.3398 56.504 68.3398C54.5595 68.3398 53.5522 67.615 52.6175 66.9378L52.6068 66.9301C51.7552 66.3131 50.9717 65.7454 49.342 65.7454C47.7124 65.7454 46.9289 66.3131 46.0772 66.9301L46.0666 66.9378C45.1318 67.615 44.1246 68.3398 42.1801 68.3398C40.2356 68.3398 39.2279 67.615 38.293 66.9378L38.2821 66.93C37.4302 66.3129 36.6467 65.7454 35.0181 65.7454C33.3893 65.7454 32.6058 66.3131 31.7542 66.9301L31.7435 66.9378C30.8089 67.615 29.8016 68.3398 27.8579 68.3398C25.9142 68.3398 24.9073 67.6149 23.9729 66.9378L23.9625 66.9302C23.111 66.3132 22.3275 65.7454 20.6977 65.7454C20.3124 65.7454 20 65.2808 20 64.7077Z" fill="#C8B2F5"/>
</svg>
