<svg width="84" height="84" viewBox="0 0 84 84" fill="none" xmlns="http://www.w3.org/2000/svg">
<circle cx="42" cy="42" r="42" fill="#474DFF"/>
<path d="M52.6344 22.7668C54.9606 20.4405 58.7824 20.4405 61.1086 22.7668C63.4349 25.093 63.4349 28.9148 61.1086 31.241C59.7378 32.6119 57.91 33.1934 56.0407 32.9442C55.9576 32.9442 55.8745 32.9442 55.7499 32.9442C55.2099 32.8611 54.6283 32.9442 54.0467 33.1934C53.2575 33.5673 52.7174 34.1904 52.4267 34.9381C52.1359 35.6859 52.1774 36.5167 52.5097 37.2644C54.5037 41.5846 53.5898 46.8187 50.1835 50.1835C46.7772 53.5898 41.5846 54.5037 37.2644 52.5097C36.4751 52.1359 35.6443 52.1359 34.8966 52.4267C34.1489 52.7174 33.5257 53.2575 33.1934 54.0052C32.9857 54.5037 32.8611 55.0022 32.9026 55.5422C32.9026 55.6253 32.9026 55.7499 32.9026 55.833C33.235 57.7438 32.5703 59.6962 31.241 61.0671C28.9148 63.3933 25.093 63.3933 22.7668 61.0671C21.6452 59.9455 21.0221 58.45 21.0221 56.8299C21.0221 55.2514 21.6452 53.7144 22.7668 52.5928C24.1376 51.222 25.9654 50.6404 27.8347 50.8897C27.8762 50.8897 27.8762 50.8897 27.9178 50.8897C28.1255 50.9312 28.3332 50.9727 28.5409 50.9727C28.9978 50.9727 29.4132 50.8897 29.8286 50.682C30.6179 50.3081 31.1579 49.685 31.4072 48.9788C31.698 48.2311 31.698 47.3587 31.3241 46.5695C29.3302 42.2077 30.2441 37.0151 33.6504 33.6504C37.0567 30.2441 42.2492 29.3302 46.5695 31.3241C47.3172 31.698 48.1895 31.698 48.9373 31.4072C49.685 31.1164 50.3081 30.5764 50.682 29.8286C50.9727 29.2471 51.0143 28.5824 50.9312 27.9593C50.6404 26.09 51.2635 24.1376 52.6344 22.7668ZM46.6941 46.6941C49.2696 44.1186 49.2696 39.923 46.6941 37.3059C44.1186 34.7304 39.923 34.7304 37.3059 37.3059C34.7304 39.8814 34.7304 44.077 37.3059 46.6941C39.923 49.2696 44.1186 49.2696 46.6941 46.6941ZM63.3103 33.4842C66.8412 29.9533 66.8412 24.2207 63.3103 20.6482C59.7793 17.1173 54.0467 17.1173 50.4743 20.6482C49.145 21.9775 48.3557 23.5976 47.9818 25.2592C41.5431 22.8498 34.1904 24.3868 29.2886 29.2886C24.3868 34.1904 22.8498 41.5846 25.3007 48.0234C23.5976 48.3557 21.9775 49.1865 20.6482 50.5158C17.1173 54.0467 17.1173 59.7793 20.6482 63.3518C24.1791 66.8827 29.9117 66.8827 33.4842 63.3518C34.8135 62.0225 35.6443 60.3609 35.9766 58.6577C37.9706 59.4055 40.0476 59.7793 42.1246 59.7793C46.7356 59.7793 51.2635 57.9931 54.6283 54.6283C59.5301 49.7265 61.0671 42.4154 58.6993 36.0182C60.3609 35.6028 61.981 34.772 63.3103 33.4842Z" fill="white"/>
</svg>
