<svg width="84" height="84" viewBox="0 0 84 84" fill="none" xmlns="http://www.w3.org/2000/svg">
<rect width="84" height="84" rx="42" fill="#312755"/>
<g clip-path="url(#clip0_701_128)">
<path d="M68.1213 23.6807C67.5371 21.4692 65.6594 19.2576 62.2796 16.7958C59.5673 14.8346 56.6882 13.708 54.3932 13.708C53.9342 13.708 53.517 13.7497 53.0997 13.8332C52.0565 14.0418 51.1386 14.7929 50.5544 15.9195C49.845 17.2548 49.6781 19.049 50.1371 20.1339C50.304 20.4677 50.5127 20.885 50.763 21.2605C48.5515 22.5958 47.2997 22.9713 47.1328 23.013C52.8911 24.9325 57.6896 28.9382 60.694 34.1541L60.7357 33.6533C60.8609 32.2764 61.2781 30.6907 61.8623 29.0634C62.4465 29.2303 63.0306 29.3138 63.6148 29.3138C65.1587 29.3138 66.494 28.6879 67.3285 27.5612C68.163 26.4346 68.4968 24.9325 68.1213 23.6807Z" fill="#5E12A0"/>
<path d="M62.1114 27.8551C65.9085 28.8983 67.4524 25.9774 66.9517 24.0163C66.4093 22.0551 64.6567 20.0523 61.569 17.799C58.4812 15.5458 55.3517 14.6278 53.3488 15.0451C51.3459 15.4623 50.7618 18.5084 51.2625 19.6767C51.4711 20.1357 51.9301 20.8033 52.556 21.5544C51.7632 22.0969 51.0121 22.5141 50.3862 22.8897C54.2251 24.6005 57.5632 27.271 60.0668 30.6091C60.3589 29.4825 60.7762 28.481 61.1517 27.6048C61.4438 27.6465 61.7776 27.73 62.1114 27.8551Z" fill="url(#paint0_radial_701_128)"/>
<path d="M40.3716 68.748C53.2538 68.748 63.6967 58.3051 63.6967 45.4228C63.6967 32.5406 53.2538 22.0977 40.3716 22.0977C27.4893 22.0977 17.0464 32.5406 17.0464 45.4228C17.0464 58.3051 27.4893 68.748 40.3716 68.748Z" fill="url(#paint1_radial_701_128)"/>
<path d="M65.0336 22.0956C61.8624 18.7575 59.1919 17.8812 55.9789 17.1719C53.4753 16.5877 54.143 15.169 57.189 15.4611C55.7286 14.9604 54.3516 14.8352 53.3502 15.0438C51.3473 15.4611 50.7631 18.5071 51.2638 19.6755C51.4725 20.1345 51.9315 20.8021 52.5574 21.5532C51.4307 22.3043 50.471 22.8467 49.6782 23.264C50.0538 23.4309 50.5128 23.6395 51.0552 23.9316C52.4739 24.6827 54.0178 25.9345 54.0178 25.9345C51.6811 23.9316 52.1818 23.0136 55.3948 20.7604C56.3962 20.051 58.2322 20.1345 59.943 21.0107C61.6538 21.887 63.6566 24.0985 63.6566 24.0985L61.7372 27.7704C61.8624 27.8122 61.9876 27.8539 62.1127 27.8956C63.3228 28.2294 64.2825 28.146 65.0336 27.8539C65.9099 27.3115 68.2048 25.4755 65.0336 22.0956Z" fill="#A98698" fill-opacity="0.6"/>
<path d="M55.9359 19.1761C56.7704 19.5099 57.8553 20.0941 59.1906 20.9704C60.7762 22.0135 62.1532 23.1819 63.0294 24.0999C61.569 26.0193 60.6093 28.6481 60.0251 30.484C60.3172 30.9013 60.651 31.3186 60.9431 31.7358C61.2352 30.6927 61.7359 29.1488 62.4035 27.6049C62.5704 27.6466 62.7791 27.6466 62.9877 27.6466C63.4884 27.6466 64.0726 27.5632 64.5316 27.1876C64.8654 26.9373 65.2409 26.4783 65.1992 25.6438C65.1992 24.8509 64.5733 23.8495 63.2798 22.6394C62.3618 21.7632 61.11 20.8035 59.8582 19.9272C56.2697 17.5488 53.7661 16.8812 52.6395 18.0078C51.8884 18.7589 51.9719 19.6768 52.2222 20.3445C50.887 21.2207 49.7604 21.8466 49.0093 22.2639C49.51 22.4308 49.969 22.6394 50.4697 22.8481C51.805 22.1387 53.7244 20.9286 55.9359 19.1761ZM63.8222 25.143C63.9474 25.3517 63.9891 25.5603 63.9891 25.6855C63.9891 26.061 63.8639 26.1862 63.7805 26.2696C63.6136 26.3948 63.2798 26.4783 62.9877 26.4783C63.2381 25.9776 63.5301 25.5603 63.8222 25.143ZM53.5157 18.9258C53.6409 18.8006 53.9747 18.7171 54.5172 18.8006C54.0999 19.1344 53.6827 19.4265 53.2654 19.7186C53.2237 19.4265 53.2654 19.1344 53.5157 18.9258Z" fill="#5E12A0"/>
<path d="M40.3716 20.7178C26.727 20.7178 15.6694 31.7753 15.6694 45.4199C15.6694 59.0645 26.727 70.1221 40.3716 70.1221C54.0162 70.1221 65.0737 59.0645 65.0737 45.4199C65.0737 31.7753 53.9745 20.7178 40.3716 20.7178ZM40.3716 68.7451C27.4781 68.7451 17.0464 58.3135 17.0464 45.4199C17.0464 32.5264 27.4781 22.0948 40.3716 22.0948C53.2651 22.0948 63.6968 32.5264 63.6968 45.4199C63.6968 58.3135 53.2234 68.7451 40.3716 68.7451Z" fill="#5E12A0"/>
<path d="M40.3716 68.748C53.2538 68.748 63.6967 58.3051 63.6967 45.4228C63.6967 32.5406 53.2538 22.0977 40.3716 22.0977C27.4893 22.0977 17.0464 32.5406 17.0464 45.4228C17.0464 58.3051 27.4893 68.748 40.3716 68.748Z" fill="url(#paint2_linear_701_128)"/>
<path d="M40.2049 65.9113C27.4782 63.8667 18.8408 51.8911 20.9272 39.1645C21.8451 33.5314 24.6826 28.7328 28.6883 25.2695C22.8466 28.6494 18.507 34.5328 17.3387 41.7098C15.2941 54.4364 23.9315 66.412 36.6164 68.4566C43.7099 69.6249 50.5531 67.4134 55.602 63.0738C51.1372 65.6609 45.7128 66.7875 40.2049 65.9113Z" fill="#A98698" fill-opacity="0.6"/>
<path d="M44.0869 22.4334C38.2035 21.4737 32.4869 22.8089 27.8136 25.7715C27.7301 25.855 27.6467 25.9384 27.6467 25.9384C29.4409 24.8535 32.0697 23.8938 32.0697 23.8938C25.31 27.8161 23.2236 32.2809 23.2236 32.2809C25.8524 27.1902 33.5718 23.6017 39.6222 23.3514C45.6726 23.101 49.6366 24.8952 54.4769 28.7758C59.3172 32.6981 62.238 40.7096 61.9459 47.0521C61.6956 53.3945 58.3575 58.5269 58.3575 58.5269C60.6524 55.5643 62.0294 53.3945 62.9057 51.183C63.0726 50.5154 63.2395 49.8478 63.3229 49.1384C65.4093 36.4535 56.8136 24.478 44.0869 22.4334Z" fill="url(#paint3_linear_701_128)"/>
<path d="M62.5307 45.2139C62.5307 57.4398 52.5998 67.3707 40.3739 67.3707C28.148 67.3707 18.1753 57.4398 18.1753 45.2139H62.5307Z" fill="url(#paint4_linear_701_128)"/>
<path d="M60.7776 45.2139C60.7776 57.1477 51.3474 66.9117 39.4971 67.3707H40.3733C52.5992 67.3707 62.5302 57.4398 62.5302 45.2139H60.7776Z" fill="url(#paint5_linear_701_128)"/>
<path d="M21.3048 45.2139H18.1753C18.1753 57.4398 28.1062 67.3707 40.3321 67.3707C40.8746 67.3707 41.3753 67.3707 41.876 67.329C30.4012 66.4944 21.3048 56.8973 21.3048 45.2139Z" fill="url(#paint6_linear_701_128)"/>
<path d="M62.489 45.4249C62.489 42.8796 58.0659 41.4191 52.1825 40.9184C47.9264 40.5846 43.6285 41.0019 38.7048 42.504C34.4487 43.7558 30.6098 43.5472 27.8141 43.2134C21.5969 42.504 18.1753 42.4206 18.1753 45.4249C18.1753 49.7644 27.0213 55.1889 40.2904 53.3112C47.0084 52.3515 50.4717 50.3903 54.4357 49.0551C58.7336 47.6364 62.489 47.6781 62.489 45.4249Z" fill="url(#paint7_linear_701_128)"/>
<path d="M53.7668 37.7015C54.6426 37.7015 55.3524 36.9917 55.3524 36.1159C55.3524 35.24 54.6426 34.5303 53.7668 34.5303C52.8909 34.5303 52.1812 35.24 52.1812 36.1159C52.1812 36.9917 52.8909 37.7015 53.7668 37.7015Z" fill="white"/>
<path d="M47.6319 34.9043C49.7061 34.9043 51.3873 33.2232 51.3873 31.149C51.3873 29.0747 49.7061 27.3936 47.6319 27.3936C45.5576 27.3936 43.8765 29.0747 43.8765 31.149C43.8765 33.2232 45.5576 34.9043 47.6319 34.9043Z" fill="white"/>
<path d="M59.4434 28.1486H59.36C59.1096 28.1069 58.9427 27.8565 58.9844 27.5645C59.36 25.645 60.9456 23.8091 61.029 23.7256C61.1959 23.517 61.5297 23.517 61.6966 23.6839C61.9053 23.8508 61.9053 24.1846 61.7384 24.3515C61.6966 24.3932 60.2362 26.104 59.9024 27.7731C59.8607 28.0234 59.652 28.1486 59.4434 28.1486Z" fill="url(#paint8_linear_701_128)"/>
<path d="M54.3916 13.7094C56.7283 13.7094 59.6074 14.836 62.2779 16.7971C65.6578 19.259 67.5355 21.4288 68.1196 23.682C68.4534 24.9755 68.1614 26.436 67.3268 27.5209C66.4506 28.6475 65.157 29.2734 63.6132 29.2734C63.0707 29.2734 62.4865 29.1899 61.8606 29.023C61.4851 29.9827 61.193 30.9424 60.9844 31.8604C63.5297 35.741 65.0319 40.4144 65.0319 45.4216C65.0319 59.0662 53.9743 70.1237 40.3297 70.1237C26.6851 70.1237 15.6693 59.0662 15.6693 45.4216C15.6693 31.777 26.7268 20.7194 40.3714 20.7194C43.3757 20.7194 46.2549 21.2619 48.9254 22.2633C49.4261 22.013 50.052 21.6791 50.7614 21.2619C50.511 20.8863 50.2606 20.5108 50.1355 20.1353C49.6765 19.0086 49.8434 17.2561 50.5527 15.9209C51.1369 14.836 52.0132 14.0849 53.098 13.8345C53.4736 13.7511 53.9326 13.7094 54.3916 13.7094ZM54.3916 13C53.8909 13 53.3901 13.0417 52.9311 13.1669C51.6793 13.459 50.5944 14.2935 49.8851 15.6288C49.0923 17.1727 48.8837 19.1755 49.4261 20.4691C49.5096 20.636 49.593 20.8446 49.7182 21.0532C49.4261 21.2201 49.134 21.3871 48.8419 21.5122C46.088 20.5525 43.2506 20.0518 40.3297 20.0518C36.9081 20.0518 33.57 20.7194 30.4405 22.0547C27.3944 23.3482 24.6822 25.1842 22.3455 27.5209C20.0088 29.8576 18.1729 32.5698 16.8793 35.6158C15.5441 38.7453 14.8765 42.0835 14.8765 45.505C14.8765 48.9266 15.5441 52.2648 16.8793 55.3942C18.1729 58.4403 20.0088 61.1525 22.3455 63.4892C24.6822 65.8259 27.3944 67.6619 30.4405 68.9554C33.57 70.2907 36.9081 70.9583 40.3297 70.9583C43.7513 70.9583 47.0894 70.2907 50.2189 68.9554C53.2649 67.6619 55.9772 65.8259 58.3139 63.4892C60.6506 61.1525 62.4865 58.4403 63.7801 55.3942C65.1153 52.2648 65.7829 48.9266 65.7829 45.505C65.7829 40.623 64.406 35.9079 61.7772 31.8187C61.9024 31.1928 62.111 30.5669 62.3196 29.941C62.7369 30.0245 63.1959 30.0662 63.6132 30.0662C65.3657 30.0662 66.9096 29.3568 67.911 28.0216C68.8707 26.7698 69.2462 25.0173 68.829 23.5568C68.1614 21.1367 66.2419 18.8417 62.6952 16.2964C59.8995 14.1683 56.8534 13 54.3916 13Z" fill="white"/>
<path d="M41.9168 64.9498C42.4008 64.9498 42.793 64.5576 42.793 64.0735C42.793 63.5895 42.4008 63.1973 41.9168 63.1973C41.4328 63.1973 41.0405 63.5895 41.0405 64.0735C41.0405 64.5576 41.4328 64.9498 41.9168 64.9498Z" fill="white" fill-opacity="0.2"/>
<path d="M41.4161 64.6172C41.0823 64.2834 41.0823 63.6992 41.4161 63.3654C41.4578 63.3237 41.5412 63.282 41.583 63.2402C41.4578 63.282 41.3743 63.3654 41.2909 63.4489C40.9571 63.7827 40.9571 64.3669 41.2909 64.7007C41.583 64.9928 42.0002 65.0345 42.3758 64.8258C42.042 64.951 41.6664 64.8676 41.4161 64.6172Z" fill="url(#paint9_linear_701_128)"/>
<path d="M42.2094 63.7791C42.3016 63.7791 42.3763 63.7044 42.3763 63.6122C42.3763 63.52 42.3016 63.4453 42.2094 63.4453C42.1172 63.4453 42.0425 63.52 42.0425 63.6122C42.0425 63.7044 42.1172 63.7791 42.2094 63.7791Z" fill="white" fill-opacity="0.3"/>
<path d="M47.2976 64.3267C47.7817 64.3267 48.1739 63.9345 48.1739 63.4505C48.1739 62.9664 47.7817 62.5742 47.2976 62.5742C46.8136 62.5742 46.4214 62.9664 46.4214 63.4505C46.4214 63.9345 46.8136 64.3267 47.2976 64.3267Z" fill="white" fill-opacity="0.2"/>
<path d="M46.7969 63.9873C46.4631 63.6535 46.4631 63.0693 46.7969 62.7355C46.8387 62.6938 46.9221 62.6521 46.9638 62.6104C46.8387 62.6521 46.7552 62.7355 46.6717 62.819C46.3379 63.1528 46.3379 63.737 46.6717 64.0708C46.9638 64.3629 47.3811 64.4046 47.7566 64.196C47.4228 64.3211 47.0473 64.2377 46.7969 63.9873Z" fill="url(#paint10_linear_701_128)"/>
<path d="M47.5902 63.1561C47.6825 63.1561 47.7572 63.0814 47.7572 62.9892C47.7572 62.897 47.6825 62.8223 47.5902 62.8223C47.498 62.8223 47.4233 62.897 47.4233 62.9892C47.4233 63.0814 47.498 63.1561 47.5902 63.1561Z" fill="white" fill-opacity="0.3"/>
<path d="M38.8285 62.823C39.4736 62.823 39.9968 62.2998 39.9968 61.6547C39.9968 61.0096 39.4736 60.4863 38.8285 60.4863C38.1834 60.4863 37.6602 61.0096 37.6602 61.6547C37.6602 62.2998 38.1834 62.823 38.8285 62.823Z" fill="white" fill-opacity="0.2"/>
<path d="M38.1606 62.406C37.7016 61.947 37.7016 61.1959 38.1606 60.737C38.244 60.6535 38.3275 60.6118 38.4109 60.5283C38.244 60.57 38.1188 60.6535 37.9937 60.7787C37.5347 61.2377 37.5347 61.9888 37.9937 62.4477C38.3692 62.8233 38.9534 62.9067 39.4124 62.6564C38.9951 62.8233 38.4944 62.7398 38.1606 62.406Z" fill="url(#paint11_linear_701_128)"/>
<path d="M39.245 61.3191C39.3831 61.3191 39.4953 61.2068 39.4953 61.0687C39.4953 60.9306 39.3831 60.8184 39.245 60.8184C39.1069 60.8184 38.9946 60.9306 38.9946 61.0687C38.9946 61.2068 39.1069 61.3191 39.245 61.3191Z" fill="white" fill-opacity="0.3"/>
<path d="M44.9208 62.2351C45.5659 62.2351 46.0891 61.7119 46.0891 61.0668C46.0891 60.4217 45.5659 59.8984 44.9208 59.8984C44.2757 59.8984 43.7524 60.4217 43.7524 61.0668C43.7524 61.7119 44.2757 62.2351 44.9208 62.2351Z" fill="white" fill-opacity="0.2"/>
<path d="M44.2529 61.8191C43.7939 61.3601 43.7939 60.609 44.2529 60.15C44.3363 60.0666 44.4198 60.0249 44.5032 59.9414C44.3363 59.9831 44.2111 60.0666 44.0859 60.1918C43.627 60.6508 43.627 61.4018 44.0859 61.8608C44.4615 62.2364 45.0457 62.3198 45.5047 62.0695C45.0874 62.2364 44.5867 62.1529 44.2529 61.8191Z" fill="url(#paint12_linear_701_128)"/>
<path d="M45.3373 60.7322C45.4754 60.7322 45.5876 60.6199 45.5876 60.4818C45.5876 60.3437 45.4754 60.2314 45.3373 60.2314C45.1992 60.2314 45.0869 60.3437 45.0869 60.4818C45.0869 60.6199 45.1992 60.7322 45.3373 60.7322Z" fill="white" fill-opacity="0.3"/>
<path d="M33.8623 62.4062C34.9226 62.4062 35.7817 61.5471 35.7817 60.4868C35.7817 59.427 34.9226 58.5674 33.8623 58.5674C32.8024 58.5674 31.9429 59.427 31.9429 60.4868C31.9429 61.5471 32.8024 62.4062 33.8623 62.4062Z" fill="white" fill-opacity="0.2"/>
<path d="M32.7775 61.6918C32.0265 60.9407 32.0265 59.7307 32.7775 58.9796C32.9027 58.8544 33.0279 58.771 33.1948 58.6875C32.9444 58.771 32.7358 58.9379 32.5272 59.1048C31.7761 59.8558 31.7761 61.0659 32.5272 61.817C33.1531 62.4429 34.1128 62.5681 34.8639 62.1091C34.1545 62.4012 33.32 62.276 32.7775 61.6918Z" fill="url(#paint13_linear_701_128)"/>
<path d="M34.5301 59.898C34.7604 59.898 34.9473 59.7111 34.9473 59.4807C34.9473 59.2504 34.7604 59.0635 34.5301 59.0635C34.2997 59.0635 34.1128 59.2504 34.1128 59.4807C34.1128 59.7111 34.2997 59.898 34.5301 59.898Z" fill="white" fill-opacity="0.3"/>
<path d="M51.0137 57.6904C52.0739 57.6904 52.9331 56.8313 52.9331 55.771C52.9331 54.7111 52.0739 53.8516 51.0137 53.8516C49.9538 53.8516 49.0942 54.7111 49.0942 55.771C49.0942 56.8313 49.9538 57.6904 51.0137 57.6904Z" fill="white" fill-opacity="0.2"/>
<path d="M49.8864 56.977C49.1353 56.2259 49.1353 55.0158 49.8864 54.2647C50.0116 54.1396 50.1368 54.0561 50.3037 53.9727C50.0533 54.0561 49.8447 54.223 49.6361 54.3899C48.885 55.141 48.885 56.3511 49.6361 57.1022C50.262 57.7281 51.2217 57.8532 51.9728 57.3942C51.2634 57.6863 50.4706 57.5611 49.8864 56.977Z" fill="url(#paint14_linear_701_128)"/>
<path d="M51.6814 55.1822C51.9118 55.1822 52.0987 54.9953 52.0987 54.7649C52.0987 54.5346 51.9118 54.3477 51.6814 54.3477C51.4511 54.3477 51.2642 54.5346 51.2642 54.7649C51.2642 54.9953 51.4511 55.1822 51.6814 55.1822Z" fill="white" fill-opacity="0.3"/>
</g>
<defs>
<radialGradient id="paint0_radial_701_128" cx="0" cy="0" r="1" gradientUnits="userSpaceOnUse" gradientTransform="translate(66.1906 21.3875) scale(18.6495 18.6495)">
<stop stop-color="#FFEAFF" stop-opacity="0.6"/>
<stop offset="0.68" stop-color="#A087C9"/>
<stop offset="1" stop-color="#10002F"/>
</radialGradient>
<radialGradient id="paint1_radial_701_128" cx="0" cy="0" r="1" gradientUnits="userSpaceOnUse" gradientTransform="translate(55.8148 29.342) scale(45.6285 45.6285)">
<stop stop-color="#FFEAFF" stop-opacity="0.6"/>
<stop offset="0.68" stop-color="#A087C9"/>
<stop offset="1" stop-color="#10002F"/>
</radialGradient>
<linearGradient id="paint2_linear_701_128" x1="36.63" y1="68.4171" x2="44.0906" y2="22.3897" gradientUnits="userSpaceOnUse">
<stop stop-color="#81FFFF" stop-opacity="0.6"/>
<stop offset="0.62" stop-color="white" stop-opacity="0"/>
<stop offset="1" stop-color="white" stop-opacity="0"/>
</linearGradient>
<linearGradient id="paint3_linear_701_128" x1="56.8115" y1="29.5839" x2="37.5238" y2="47.281" gradientUnits="userSpaceOnUse">
<stop stop-color="white" stop-opacity="0.6"/>
<stop offset="0.29" stop-color="white" stop-opacity="0.6"/>
<stop offset="0.78" stop-color="white" stop-opacity="0"/>
<stop offset="1" stop-color="white" stop-opacity="0"/>
</linearGradient>
<linearGradient id="paint4_linear_701_128" x1="18.1941" y1="56.2793" x2="62.5199" y2="56.2793" gradientUnits="userSpaceOnUse">
<stop stop-color="#0002E9"/>
<stop offset="1" stop-color="#FF00C7"/>
</linearGradient>
<linearGradient id="paint5_linear_701_128" x1="64.6177" y1="47.1581" x2="40.4913" y2="69.959" gradientUnits="userSpaceOnUse">
<stop stop-color="white" stop-opacity="0.6"/>
<stop offset="0.29" stop-color="white" stop-opacity="0.6"/>
<stop offset="0.78" stop-color="white" stop-opacity="0"/>
<stop offset="1" stop-color="white" stop-opacity="0"/>
</linearGradient>
<linearGradient id="paint6_linear_701_128" x1="18.1941" y1="56.2793" x2="41.9082" y2="56.2793" gradientUnits="userSpaceOnUse">
<stop stop-color="#000292" stop-opacity="0.7"/>
<stop offset="1" stop-color="#7D00C7" stop-opacity="0.7"/>
</linearGradient>
<linearGradient id="paint7_linear_701_128" x1="18.2238" y1="47.2656" x2="62.4903" y2="47.2656" gradientUnits="userSpaceOnUse">
<stop stop-color="#000292"/>
<stop offset="1" stop-color="#BE00C7"/>
</linearGradient>
<linearGradient id="paint8_linear_701_128" x1="61.7642" y1="23.5224" x2="58.583" y2="28.6923" gradientUnits="userSpaceOnUse">
<stop stop-color="white" stop-opacity="0.6"/>
<stop offset="0.29" stop-color="white" stop-opacity="0.6"/>
<stop offset="0.78" stop-color="white" stop-opacity="0"/>
<stop offset="1" stop-color="white" stop-opacity="0"/>
</linearGradient>
<linearGradient id="paint9_linear_701_128" x1="41.0351" y1="64.0848" x2="42.3604" y2="64.0848" gradientUnits="userSpaceOnUse">
<stop stop-color="white" stop-opacity="0.6"/>
<stop offset="0.29" stop-color="white" stop-opacity="0.6"/>
<stop offset="0.78" stop-color="white" stop-opacity="0"/>
<stop offset="1" stop-color="white" stop-opacity="0"/>
</linearGradient>
<linearGradient id="paint10_linear_701_128" x1="46.3979" y1="63.4532" x2="47.7233" y2="63.4532" gradientUnits="userSpaceOnUse">
<stop stop-color="white" stop-opacity="0.6"/>
<stop offset="0.29" stop-color="white" stop-opacity="0.6"/>
<stop offset="0.78" stop-color="white" stop-opacity="0"/>
<stop offset="1" stop-color="white" stop-opacity="0"/>
</linearGradient>
<linearGradient id="paint11_linear_701_128" x1="37.6482" y1="61.6908" x2="39.4137" y2="61.6908" gradientUnits="userSpaceOnUse">
<stop stop-color="white" stop-opacity="0.6"/>
<stop offset="0.29" stop-color="white" stop-opacity="0.6"/>
<stop offset="0.78" stop-color="white" stop-opacity="0"/>
<stop offset="1" stop-color="white" stop-opacity="0"/>
</linearGradient>
<linearGradient id="paint12_linear_701_128" x1="43.7363" y1="61.096" x2="45.5017" y2="61.096" gradientUnits="userSpaceOnUse">
<stop stop-color="white" stop-opacity="0.6"/>
<stop offset="0.29" stop-color="white" stop-opacity="0.6"/>
<stop offset="0.78" stop-color="white" stop-opacity="0"/>
<stop offset="1" stop-color="white" stop-opacity="0"/>
</linearGradient>
<linearGradient id="paint13_linear_701_128" x1="31.9447" y1="60.5306" x2="34.8278" y2="60.5306" gradientUnits="userSpaceOnUse">
<stop stop-color="white" stop-opacity="0.6"/>
<stop offset="0.29" stop-color="white" stop-opacity="0.6"/>
<stop offset="0.78" stop-color="white" stop-opacity="0"/>
<stop offset="1" stop-color="white" stop-opacity="0"/>
</linearGradient>
<linearGradient id="paint14_linear_701_128" x1="49.0696" y1="55.8145" x2="51.9526" y2="55.8145" gradientUnits="userSpaceOnUse">
<stop stop-color="white" stop-opacity="0.6"/>
<stop offset="0.29" stop-color="white" stop-opacity="0.6"/>
<stop offset="0.78" stop-color="white" stop-opacity="0"/>
<stop offset="1" stop-color="white" stop-opacity="0"/>
</linearGradient>
<clipPath id="clip0_701_128">
<rect width="58" height="58" fill="white" transform="translate(13 13)"/>
</clipPath>
</defs>
</svg>
