<svg width="84" height="84" viewBox="0 0 84 84" fill="none" xmlns="http://www.w3.org/2000/svg">
<circle cx="42" cy="42" r="42" fill="#FBFBFA"/>
<path fill-rule="evenodd" clip-rule="evenodd" d="M37.6795 28.4151C37.5746 28.6435 36.81 30.3927 35.9804 32.3023C35.1507 34.2119 34.3369 36.0799 34.1718 36.4536C34.0066 36.8272 33.1905 38.6953 32.358 40.6049C31.5255 42.5145 29.8669 46.3131 28.6723 49.0465C27.4774 51.7797 26.5 54.0737 26.5 54.1438C26.5 54.2142 28.1718 54.2536 30.2152 54.2313L33.9302 54.1909L34.8817 51.7963C35.4049 50.4792 35.8942 49.3406 35.9689 49.2658C36.0457 49.189 38.4478 49.1472 41.5067 49.1697L46.9086 49.2094L47.9129 51.7373L48.917 54.2651L52.7448 54.2658C55.7471 54.2663 56.5563 54.2257 56.497 54.0777C56.4007 53.8376 53.6548 47.5686 53.0751 46.2657C52.8351 45.7261 52.2668 44.4354 51.8122 43.3976C50.5055 40.4141 47.3676 33.2395 46.4641 31.1701C46.0111 30.1323 45.514 28.9945 45.3594 28.6416L45.0784 28H41.4743H37.8702L37.6795 28.4151ZM39.7215 39.5688C38.8378 41.7805 38.1407 43.616 38.1726 43.6477C38.2043 43.6795 39.6866 43.6871 41.4667 43.6648L44.7032 43.624L43.1117 39.5882C42.2363 37.3684 41.477 35.5513 41.4243 35.5501C41.3715 35.5489 40.6052 37.3573 39.7215 39.5688Z" fill="#0A2D33"/>
<path d="M62 21H21V62H62V21Z" stroke="#DEB026" stroke-width="1.7"/>
</svg>
