<svg width="84" height="84" viewBox="0 0 84 84" fill="none" xmlns="http://www.w3.org/2000/svg">
<rect width="84" height="84" rx="42" fill="white"/>
<g clip-path="url(#clip0_1308_171)">
<path d="M54.2107 1.80405V17.4739C54.2107 22.558 50.0958 26.6731 45.0117 26.6731H44.8775C42.328 26.658 40.032 26.6731 40.032 26.6731C39.5995 26.6731 39.1224 26.6282 38.705 26.6731C35.8424 26.9712 33.3526 28.2683 31.2651 30.5792C31.2055 30.6388 31.1458 30.7135 31.1012 30.7731C29.4163 32.9499 28.492 35.7679 28.492 38.8094V38.9585C28.492 40.9115 28.8946 42.7752 29.6251 44.4451C30.3557 46.115 29.9829 48.0533 28.5814 49.2161C27.2098 50.3642 25.5847 51.7061 24.4962 52.5856C21.3206 48.9776 19.4569 44.2662 19.4569 39.1223V38.9733C19.4569 27.7763 28.4175 18.443 40.5837 18.443C41.3439 18.443 43.819 18.443 44.9818 18.443V0.119276C43.9979 0.0447288 42.9988 0 41.9999 0C18.8008 0 0 18.8008 0 41.9999C0 60.9498 12.5538 76.9627 29.7891 82.181V66.6304C29.7891 61.5015 33.9488 57.3418 39.0778 57.3418H39.1224C41.672 57.3566 43.968 57.3418 43.968 57.3418C44.4003 57.3418 44.8775 57.3865 45.295 57.3418C48.1576 57.0437 50.6475 55.7466 52.7347 53.4355C52.7945 53.3758 52.854 53.3014 52.8989 53.2418C54.5835 51.065 55.5079 48.247 55.5079 45.2055V45.0564C55.5079 43.5356 54.8668 41.4931 54.2257 39.853C53.5101 38.0191 54.0617 35.917 55.5676 34.6645C56.8648 33.5761 58.1916 32.5027 59.5036 31.4441C62.6794 35.0521 64.5431 39.7635 64.5431 44.9074V45.0564C64.5431 56.2534 55.5826 65.5868 43.4164 65.5868C42.6559 65.5868 40.181 65.5868 39.018 65.5868V83.8807C40.0021 83.9552 41.001 84 41.9999 84C65.1992 84 84 65.199 84 41.9999C84 23.0501 71.4461 7.03727 54.2107 1.80405Z" fill="#1D8AED"/>
</g>
<defs>
<clipPath id="clip0_1308_171">
<rect width="84" height="84" fill="white"/>
</clipPath>
</defs>
</svg>
