<svg width="84" height="84" viewBox="0 0 84 84" fill="none" xmlns="http://www.w3.org/2000/svg">
<circle cx="42" cy="42" r="42" fill="#100E21"/>
<g clip-path="url(#clip0_1710_182)">
<path d="M44.1137 36.0717C45.2013 36.0722 46.2646 35.7496 47.1689 35.1449C48.0731 34.5401 48.7776 33.6803 49.1932 32.6746C49.6087 31.6687 49.7167 30.5621 49.5033 29.495C49.2898 28.4277 48.7646 27.448 47.9941 26.6797C47.2237 25.9114 46.2428 25.3893 45.1756 25.1794C44.1084 24.9695 43.003 25.0813 41.9993 25.5006C40.9956 25.9199 40.1389 26.6279 39.5377 27.5349C38.9365 28.4419 38.6179 29.507 38.6221 30.5954C38.629 32.049 39.2104 33.4408 40.2393 34.4668C41.2683 35.4929 42.6611 36.0699 44.1137 36.0717ZM44.1137 26.9834C44.8231 26.9829 45.5168 27.1928 46.1071 27.5864C46.6975 27.9801 47.158 28.54 47.4307 29.1953C47.7034 29.8507 47.7759 30.5723 47.6392 31.2689C47.5025 31.9655 47.1626 32.6059 46.6624 33.1094C46.1623 33.6129 45.5243 33.9568 44.829 34.0977C44.1337 34.2387 43.4123 34.1704 42.7558 33.9015C42.0992 33.6325 41.537 33.175 41.1401 32.5866C40.7432 31.9981 40.5294 31.3053 40.5256 30.5954C40.5247 30.123 40.6168 29.6551 40.7966 29.2184C40.9764 28.7817 41.2405 28.3847 41.5737 28.0502C41.9069 27.7156 42.3028 27.45 42.7386 27.2686C43.1744 27.0872 43.6417 26.9935 44.1137 26.9929V26.9834Z" fill="#8246FA"/>
<path d="M44.1134 40.6245C46.0984 40.6245 48.0388 40.0354 49.6891 38.9315C51.3394 37.8277 52.6256 36.2589 53.3847 34.4234C54.1436 32.588 54.3416 30.5686 53.9536 28.6205C53.5654 26.6725 52.6087 24.8834 51.2043 23.4797C49.7998 22.0759 48.0108 21.1205 46.0636 20.7345C44.1165 20.3484 42.0986 20.5489 40.2654 21.3107C38.4322 22.0725 36.8659 23.3613 35.7648 25.0141C34.6637 26.6668 34.0772 28.6093 34.0796 30.5957V57.8583C34.0796 58.1109 34.1799 58.3531 34.3584 58.5319C34.5368 58.7105 34.7789 58.8109 35.0313 58.8109C35.2838 58.8109 35.5258 58.7105 35.7043 58.5319C35.8828 58.3531 35.9831 58.1109 35.9831 57.8583V36.4577C36.9118 37.7468 38.1332 38.7968 39.5467 39.5212C40.9601 40.2455 42.5253 40.6237 44.1134 40.6245ZM44.1134 22.4502C45.721 22.4502 47.2926 22.9271 48.6294 23.8207C49.9662 24.7142 51.0084 25.9844 51.6241 27.4704C52.2395 28.9566 52.4012 30.5919 52.0883 32.1699C51.7753 33.7478 51.002 35.1976 49.8658 36.3358C48.7297 37.474 47.2819 38.2496 45.7054 38.5646C44.1289 38.8796 42.4945 38.7199 41.0087 38.1055C39.5229 37.4912 38.2524 36.4499 37.3579 35.1132C36.4634 33.7765 35.985 32.2044 35.9831 30.5957C35.9825 28.4368 36.8385 26.3661 38.3631 24.8386C39.8877 23.3112 41.9561 22.4521 44.1134 22.4502Z" fill="#8246FA"/>
<path d="M44.1137 16C40.2478 16.0044 36.5417 17.544 33.8092 20.2806C31.0767 23.0172 29.5413 26.7271 29.54 30.5957V66.9348C29.54 67.1875 29.6403 67.4297 29.8188 67.6082C29.9973 67.787 30.2394 67.8872 30.4918 67.8872C30.7442 67.8872 30.9863 67.787 31.1648 67.6082C31.3433 67.4297 31.4435 67.1875 31.4435 66.9348V30.5957C31.4435 28.088 32.1866 25.6367 33.5788 23.5516C34.9711 21.4666 36.9499 19.8415 39.265 18.8818C41.5802 17.9222 44.1278 17.6711 46.5855 18.1603C49.0434 18.6496 51.301 19.8571 53.0728 21.6303C54.8448 23.4035 56.0515 25.6627 56.5404 28.1221C57.0293 30.5816 56.7783 33.1309 55.8195 35.4477C54.8605 37.7645 53.2364 39.7448 51.1528 41.1378C49.0693 42.5309 46.6196 43.2746 44.1137 43.2746C43.8613 43.2746 43.6192 43.375 43.4407 43.5536C43.2622 43.7321 43.1619 43.9743 43.1619 44.227C43.1619 44.4796 43.2622 44.7218 43.4407 44.9006C43.6192 45.0792 43.8613 45.1794 44.1137 45.1794C47.9789 45.1794 51.6857 43.6429 54.4189 40.908C57.1521 38.173 58.6874 34.4635 58.6874 30.5957C58.6874 26.7278 57.1521 23.0184 54.4189 20.2834C51.6857 17.5484 47.9789 16.0119 44.1137 16.0119V16Z" fill="#8246FA"/>
<path d="M25.9517 34.167C25.6993 34.167 25.4573 34.2673 25.2788 34.4459C25.1003 34.6245 25 34.8668 25 35.1194V53.2937C25 53.5464 25.1003 53.7886 25.2788 53.9671C25.4573 54.1459 25.6993 54.2461 25.9517 54.2461C26.2042 54.2461 26.4463 54.1459 26.6247 53.9671C26.8032 53.7886 26.9035 53.5464 26.9035 53.2937V35.1194C26.9035 34.8668 26.8032 34.6245 26.6247 34.4459C26.4463 34.2673 26.2042 34.167 25.9517 34.167Z" fill="#8246FA"/>
<path d="M39.5738 52.3516C39.3214 52.3516 39.0793 52.452 38.9008 52.6306C38.7223 52.8091 38.6221 53.0513 38.6221 53.3039V62.3923C38.6221 62.645 38.7223 62.8871 38.9008 63.0657C39.0793 63.2445 39.3214 63.3447 39.5738 63.3447C39.8262 63.3447 40.0683 63.2445 40.2468 63.0657C40.4253 62.8871 40.5256 62.645 40.5256 62.3923V53.3039C40.5256 53.0513 40.4253 52.8091 40.2468 52.6306C40.0683 52.452 39.8262 52.3516 39.5738 52.3516Z" fill="#8246FA"/>
</g>
<defs>
<clipPath id="clip0_1710_182">
<rect width="33.7169" height="52" fill="white" transform="translate(25 16)"/>
</clipPath>
</defs>
</svg>
