<svg width="84" height="84" viewBox="0 0 84 84" fill="none" xmlns="http://www.w3.org/2000/svg">
<circle cx="42" cy="42" r="42" fill="#1F2529"/>
<path d="M19.4346 53.9469L41.9536 40.4153V67.4785L19.4346 53.9469Z" fill="#00FFFF"/>
<path d="M64.4727 53.9469L41.9537 40.4153V67.4785L64.4727 53.9469Z" fill="#009695"/>
<path d="M25.3812 44.564L36.1028 47.9446L19.3404 54.0471L25.3812 44.564Z" fill="#00FFFF"/>
<path d="M58.4328 43.8762L47.3539 47.6598L64.4883 53.8977L58.4328 43.8762Z" fill="#009695"/>
<path d="M42.1561 16L60.0769 46.4383H24.2354L42.1561 16Z" fill="#00FFFF"/>
<path d="M41.9537 67.1367L24.3037 46.4387H59.4424L41.9537 67.1367Z" fill="#00C1C1"/>
<path d="M41.9537 67.1367L24.3037 46.4387H59.4424L41.9537 67.1367Z" fill="#00C1C1"/>
<path d="M30.0606 36.5365L35.5588 46.4553L24.2197 46.2574L30.0606 36.5365Z" fill="white"/>
<path d="M61.2266 49.2793H61.6323V50.091H61.2266V49.2793Z" fill="#009695"/>
<path d="M59.1978 46.4385H60.0092V47.656H59.1978V46.4385Z" fill="#009695"/>
</svg>
